<svg xmlns="http://www.w3.org/2000/svg" xmlns:xlink="http://www.w3.org/1999/xlink" width="500" zoomAndPan="magnify" viewBox="0 0 375 374.999991" height="500" preserveAspectRatio="xMidYMid meet" version="1.0"><defs><g/><clipPath id="089ccba5a6"><path d="M 8.214844 138.378906 L 182.96875 138.378906 L 182.96875 256.855469 L 8.214844 256.855469 Z M 8.214844 138.378906 " clip-rule="nonzero"/></clipPath><clipPath id="04a1dd1389"><path d="M 95.589844 138.378906 C 47.335938 138.378906 8.214844 164.898438 8.214844 197.617188 C 8.214844 230.332031 47.335938 256.855469 95.589844 256.855469 C 143.847656 256.855469 182.96875 230.332031 182.96875 197.617188 C 182.96875 164.898438 143.847656 138.378906 95.589844 138.378906 " clip-rule="nonzero"/></clipPath><clipPath id="25688cac77"><path d="M 9.765625 140.648438 L 181.417969 140.648438 L 181.417969 252.003906 L 9.765625 252.003906 Z M 9.765625 140.648438 " clip-rule="nonzero"/></clipPath><clipPath id="cc6d4f9da1"><path d="M 95.589844 140.648438 C 48.191406 140.648438 9.765625 165.578125 9.765625 196.328125 C 9.765625 227.078125 48.191406 252.003906 95.589844 252.003906 C 142.992188 252.003906 181.417969 227.078125 181.417969 196.328125 C 181.417969 165.578125 142.992188 140.648438 95.589844 140.648438 " clip-rule="nonzero"/></clipPath><clipPath id="886a2d934a"><path d="M 54.109375 154 L 139.261719 154 L 139.261719 158.792969 L 54.109375 158.792969 Z M 54.109375 154 " clip-rule="nonzero"/></clipPath><clipPath id="4a307c17a5"><path d="M 21.082031 121.878906 L 172.339844 121.878906 L 172.339844 266.296875 L 21.082031 266.296875 Z M 21.082031 121.878906 " clip-rule="nonzero"/></clipPath><clipPath id="eef16cc748"><path d="M 96.710938 121.878906 C 54.941406 121.878906 21.082031 154.207031 21.082031 194.085938 C 21.082031 233.96875 54.941406 266.296875 96.710938 266.296875 C 138.480469 266.296875 172.339844 233.96875 172.339844 194.085938 C 172.339844 154.207031 138.480469 121.878906 96.710938 121.878906 " clip-rule="nonzero"/></clipPath><clipPath id="c57b13333f"><path d="M 22.972656 123.117188 L 170.300781 123.117188 L 170.300781 260.898438 L 22.972656 260.898438 Z M 22.972656 123.117188 " clip-rule="nonzero"/></clipPath><clipPath id="11424f61bc"><path d="M 96.636719 123.117188 C 55.953125 123.117188 22.972656 153.960938 22.972656 192.007812 C 22.972656 230.054688 55.953125 260.898438 96.636719 260.898438 C 137.320312 260.898438 170.300781 230.054688 170.300781 192.007812 C 170.300781 153.960938 137.320312 123.117188 96.636719 123.117188 " clip-rule="nonzero"/></clipPath><clipPath id="431a73329d"><path d="M 94 110.640625 L 99 110.640625 L 99 117 L 94 117 Z M 94 110.640625 " clip-rule="nonzero"/></clipPath><clipPath id="9356342f2e"><path d="M 54.890625 155 L 138.042969 155 L 138.042969 159.726562 L 54.890625 159.726562 Z M 54.890625 155 " clip-rule="nonzero"/></clipPath><clipPath id="3a67129924"><path d="M 94 112.566406 L 99 112.566406 L 99 119 L 94 119 Z M 94 112.566406 " clip-rule="nonzero"/></clipPath><clipPath id="f87fa68339"><path d="M 54.890625 157 L 138.042969 157 L 138.042969 161.65625 L 54.890625 161.65625 Z M 54.890625 157 " clip-rule="nonzero"/></clipPath></defs><g clip-path="url(#089ccba5a6)"><g clip-path="url(#04a1dd1389)"><path fill="#ffffff" d="M 8.214844 138.378906 L 182.96875 138.378906 L 182.96875 256.855469 L 8.214844 256.855469 Z M 8.214844 138.378906 " fill-opacity="1" fill-rule="nonzero"/></g></g><g clip-path="url(#25688cac77)"><g clip-path="url(#cc6d4f9da1)"><path fill="#ffffff" d="M 9.765625 140.648438 L 181.417969 140.648438 L 181.417969 252.003906 L 9.765625 252.003906 Z M 9.765625 140.648438 " fill-opacity="1" fill-rule="nonzero"/></g></g><path fill="#ffffff" d="M 134.925781 151.015625 C 134.550781 142.210938 130.949219 134 124.683594 127.757812 C 118.167969 121.230469 109.5 117.589844 100.273438 117.507812 C 100.195312 117.5 100.15625 117.5 100.109375 117.496094 C 100.035156 117.492188 99.972656 117.488281 99.894531 117.492188 L 93.476562 117.492188 C 93.390625 117.492188 93.320312 117.488281 93.246094 117.496094 C 74.484375 117.691406 59.246094 132.582031 58.445312 151.015625 Z M 85.917969 120.589844 C 87.167969 120.308594 88.464844 120.101562 89.769531 119.976562 C 90.601562 119.902344 91.347656 120.507812 91.429688 121.339844 C 91.511719 122.175781 90.898438 122.917969 90.0625 123 C 88.882812 123.113281 87.710938 123.296875 86.589844 123.550781 C 86.476562 123.578125 86.363281 123.589844 86.253906 123.589844 C 85.558594 123.589844 84.929688 123.109375 84.769531 122.402344 C 84.585938 121.585938 85.101562 120.773438 85.917969 120.585938 Z M 79.496094 122.851562 C 80.253906 122.480469 81.160156 122.789062 81.53125 123.542969 C 81.90625 124.296875 81.59375 125.207031 80.84375 125.578125 C 69.492188 131.171875 65.660156 143.699219 65.621094 143.824219 C 65.425781 144.484375 64.820312 144.910156 64.164062 144.910156 C 64.023438 144.910156 63.878906 144.890625 63.734375 144.847656 C 62.929688 144.613281 62.46875 143.769531 62.707031 142.964844 C 62.871094 142.398438 66.925781 129.050781 79.496094 122.851562 Z M 79.496094 122.851562 " fill-opacity="1" fill-rule="nonzero"/><path fill="#ffffff" d="M 94.601562 111.097656 L 94.601562 114.453125 L 98.769531 114.453125 L 98.769531 111.097656 C 98.769531 110.550781 98.542969 110.007812 98.152344 109.605469 C 97.777344 109.230469 97.25 109.015625 96.683594 109.015625 C 95.535156 109.015625 94.601562 109.949219 94.601562 111.097656 Z M 94.601562 111.097656 " fill-opacity="1" fill-rule="nonzero"/><g clip-path="url(#886a2d934a)"><path fill="#ffffff" d="M 137.765625 154.054688 L 136.503906 154.054688 C 136.496094 154.054688 136.488281 154.058594 136.480469 154.058594 L 56.890625 154.058594 C 56.882812 154.058594 56.875 154.054688 56.867188 154.054688 L 55.605469 154.054688 C 54.78125 154.054688 54.109375 154.722656 54.109375 155.550781 L 54.109375 157.015625 C 54.109375 157.839844 54.78125 158.511719 55.605469 158.511719 L 137.765625 158.511719 C 138.589844 158.511719 139.261719 157.839844 139.261719 157.015625 L 139.261719 155.550781 C 139.261719 154.726562 138.589844 154.054688 137.765625 154.054688 Z M 137.765625 154.054688 " fill-opacity="1" fill-rule="nonzero"/></g><g fill="#ffffff" fill-opacity="1"><g transform="translate(70.095719, 221.676462)"><g><path d="M 0.421875 -7.4375 L 6.390625 -7.734375 L 6.484375 -5.96875 L 2.890625 -5.78125 L 2.953125 -4.515625 L 6.046875 -4.6875 L 6.125 -2.984375 L 3.03125 -2.8125 L 3.171875 -0.15625 L 0.796875 -0.046875 Z M 0.421875 -7.4375 "/></g></g></g><g fill="#ffffff" fill-opacity="1"><g transform="translate(77.26393, 221.31021)"><g><path d="M 4.09375 -7.75 C 5.351562 -7.8125 6.347656 -7.535156 7.078125 -6.921875 C 7.816406 -6.316406 8.21875 -5.390625 8.28125 -4.140625 C 8.34375 -2.890625 8.039062 -1.921875 7.375 -1.234375 C 6.707031 -0.546875 5.742188 -0.171875 4.484375 -0.109375 C 3.203125 -0.0351562 2.195312 -0.304688 1.46875 -0.921875 C 0.75 -1.535156 0.359375 -2.472656 0.296875 -3.734375 C 0.234375 -4.992188 0.53125 -5.957031 1.1875 -6.625 C 1.84375 -7.300781 2.8125 -7.675781 4.09375 -7.75 Z M 4.1875 -6 C 3.675781 -5.96875 3.296875 -5.789062 3.046875 -5.46875 C 2.796875 -5.144531 2.6875 -4.722656 2.71875 -4.203125 L 2.75 -3.515625 C 2.78125 -2.992188 2.9375 -2.582031 3.21875 -2.28125 C 3.5 -1.976562 3.894531 -1.84375 4.40625 -1.875 C 4.914062 -1.894531 5.289062 -2.066406 5.53125 -2.390625 C 5.78125 -2.722656 5.890625 -3.148438 5.859375 -3.671875 L 5.828125 -4.359375 C 5.796875 -4.878906 5.640625 -5.285156 5.359375 -5.578125 C 5.085938 -5.878906 4.695312 -6.019531 4.1875 -6 Z M 4.1875 -6 "/></g></g></g><g fill="#ffffff" fill-opacity="1"><g transform="translate(86.21613, 220.852808)"><g><path d="M 4.09375 -7.75 C 5.351562 -7.8125 6.347656 -7.535156 7.078125 -6.921875 C 7.816406 -6.316406 8.21875 -5.390625 8.28125 -4.140625 C 8.34375 -2.890625 8.039062 -1.921875 7.375 -1.234375 C 6.707031 -0.546875 5.742188 -0.171875 4.484375 -0.109375 C 3.203125 -0.0351562 2.195312 -0.304688 1.46875 -0.921875 C 0.75 -1.535156 0.359375 -2.472656 0.296875 -3.734375 C 0.234375 -4.992188 0.53125 -5.957031 1.1875 -6.625 C 1.84375 -7.300781 2.8125 -7.675781 4.09375 -7.75 Z M 4.1875 -6 C 3.675781 -5.96875 3.296875 -5.789062 3.046875 -5.46875 C 2.796875 -5.144531 2.6875 -4.722656 2.71875 -4.203125 L 2.75 -3.515625 C 2.78125 -2.992188 2.9375 -2.582031 3.21875 -2.28125 C 3.5 -1.976562 3.894531 -1.84375 4.40625 -1.875 C 4.914062 -1.894531 5.289062 -2.066406 5.53125 -2.390625 C 5.78125 -2.722656 5.890625 -3.148438 5.859375 -3.671875 L 5.828125 -4.359375 C 5.796875 -4.878906 5.640625 -5.285156 5.359375 -5.578125 C 5.085938 -5.878906 4.695312 -6.019531 4.1875 -6 Z M 4.1875 -6 "/></g></g></g><g fill="#ffffff" fill-opacity="1"><g transform="translate(95.16833, 220.395406)"><g><path d="M 3.625 -7.59375 C 6.207031 -7.726562 7.5625 -6.566406 7.6875 -4.109375 C 7.8125 -1.640625 6.582031 -0.335938 4 -0.203125 L 0.796875 -0.046875 L 0.421875 -7.4375 Z M 3.078125 -1.9375 L 3.875 -1.984375 C 4.863281 -2.035156 5.332031 -2.59375 5.28125 -3.65625 L 5.25 -4.3125 C 5.195312 -5.375 4.675781 -5.878906 3.6875 -5.828125 L 2.890625 -5.78125 Z M 3.078125 -1.9375 "/></g></g></g><g fill="#ffffff" fill-opacity="1"><g transform="translate(103.52945, 219.968205)"><g/></g></g><g fill="#ffffff" fill-opacity="1"><g transform="translate(107.10818, 219.785354)"><g><path d="M 3.9375 -7.734375 C 5.019531 -7.785156 5.894531 -7.554688 6.5625 -7.046875 C 7.238281 -6.546875 7.601562 -5.785156 7.65625 -4.765625 L 5.40625 -4.640625 C 5.382812 -5.066406 5.25 -5.398438 5 -5.640625 C 4.757812 -5.890625 4.429688 -6.003906 4.015625 -5.984375 C 3.535156 -5.960938 3.191406 -5.796875 2.984375 -5.484375 C 2.773438 -5.171875 2.6875 -4.742188 2.71875 -4.203125 L 2.75 -3.515625 C 2.78125 -2.984375 2.914062 -2.566406 3.15625 -2.265625 C 3.394531 -1.972656 3.75 -1.835938 4.21875 -1.859375 C 4.675781 -1.878906 5.015625 -2.015625 5.234375 -2.265625 C 5.453125 -2.523438 5.550781 -2.867188 5.53125 -3.296875 L 7.71875 -3.40625 C 7.769531 -2.394531 7.5 -1.601562 6.90625 -1.03125 C 6.3125 -0.46875 5.453125 -0.15625 4.328125 -0.09375 C 3.066406 -0.03125 2.09375 -0.304688 1.40625 -0.921875 C 0.726562 -1.535156 0.359375 -2.472656 0.296875 -3.734375 C 0.234375 -4.992188 0.507812 -5.957031 1.125 -6.625 C 1.738281 -7.300781 2.675781 -7.671875 3.9375 -7.734375 Z M 3.9375 -7.734375 "/></g></g></g><g fill="#ffffff" fill-opacity="1"><g transform="translate(115.469301, 219.358153)"><g><path d="M 4.09375 -7.75 C 5.351562 -7.8125 6.347656 -7.535156 7.078125 -6.921875 C 7.816406 -6.316406 8.21875 -5.390625 8.28125 -4.140625 C 8.34375 -2.890625 8.039062 -1.921875 7.375 -1.234375 C 6.707031 -0.546875 5.742188 -0.171875 4.484375 -0.109375 C 3.203125 -0.0351562 2.195312 -0.304688 1.46875 -0.921875 C 0.75 -1.535156 0.359375 -2.472656 0.296875 -3.734375 C 0.234375 -4.992188 0.53125 -5.957031 1.1875 -6.625 C 1.84375 -7.300781 2.8125 -7.675781 4.09375 -7.75 Z M 4.1875 -6 C 3.675781 -5.96875 3.296875 -5.789062 3.046875 -5.46875 C 2.796875 -5.144531 2.6875 -4.722656 2.71875 -4.203125 L 2.75 -3.515625 C 2.78125 -2.992188 2.9375 -2.582031 3.21875 -2.28125 C 3.5 -1.976562 3.894531 -1.84375 4.40625 -1.875 C 4.914062 -1.894531 5.289062 -2.066406 5.53125 -2.390625 C 5.78125 -2.722656 5.890625 -3.148438 5.859375 -3.671875 L 5.828125 -4.359375 C 5.796875 -4.878906 5.640625 -5.285156 5.359375 -5.578125 C 5.085938 -5.878906 4.695312 -6.019531 4.1875 -6 Z M 4.1875 -6 "/></g></g></g><g fill="#ffffff" fill-opacity="1"><g transform="translate(124.421501, 218.900751)"><g><path d="M 8 -3.40625 C 8.050781 -2.394531 7.769531 -1.601562 7.15625 -1.03125 C 6.539062 -0.46875 5.648438 -0.160156 4.484375 -0.109375 C 3.304688 -0.046875 2.382812 -0.265625 1.71875 -0.765625 C 1.050781 -1.265625 0.691406 -2.019531 0.640625 -3.03125 L 0.421875 -7.4375 L 2.796875 -7.546875 L 3.015625 -3.171875 C 3.035156 -2.753906 3.164062 -2.425781 3.40625 -2.1875 C 3.644531 -1.957031 3.976562 -1.851562 4.40625 -1.875 C 4.820312 -1.894531 5.132812 -2.035156 5.34375 -2.296875 C 5.5625 -2.566406 5.660156 -2.90625 5.640625 -3.3125 L 5.421875 -7.6875 L 7.78125 -7.8125 Z M 8 -3.40625 "/></g></g></g><g fill="#ffffff" fill-opacity="1"><g transform="translate(133.373701, 218.443349)"><g><path d="M 7.546875 -5.546875 C 7.566406 -5.085938 7.460938 -4.664062 7.234375 -4.28125 C 7.015625 -3.90625 6.675781 -3.617188 6.21875 -3.421875 L 8.03125 -0.40625 L 5.375 -0.28125 L 3.921875 -2.90625 L 3.03125 -2.859375 L 3.171875 -0.15625 L 0.796875 -0.046875 L 0.421875 -7.4375 L 4.953125 -7.65625 C 5.472656 -7.6875 5.925781 -7.609375 6.3125 -7.421875 C 6.695312 -7.242188 6.992188 -6.988281 7.203125 -6.65625 C 7.410156 -6.320312 7.523438 -5.953125 7.546875 -5.546875 Z M 5.15625 -5.3125 C 5.144531 -5.507812 5.066406 -5.664062 4.921875 -5.78125 C 4.785156 -5.90625 4.625 -5.960938 4.4375 -5.953125 L 2.875 -5.875 L 2.953125 -4.5 L 4.515625 -4.578125 C 4.703125 -4.585938 4.851562 -4.664062 4.96875 -4.8125 C 5.09375 -4.957031 5.15625 -5.125 5.15625 -5.3125 Z M 5.15625 -5.3125 "/></g></g></g><g fill="#ffffff" fill-opacity="1"><g transform="translate(141.734821, 218.016147)"><g><path d="M 4.78125 -5.78125 L 5.0625 -0.265625 L 2.6875 -0.140625 L 2.40625 -5.65625 L -0.03125 -5.53125 L -0.125 -7.40625 L 7.09375 -7.765625 L 7.1875 -5.890625 Z M 4.78125 -5.78125 "/></g></g></g><g fill="#000000" fill-opacity="1"><g transform="translate(21.636886, 216.608358)"><g><path d="M 15.890625 -12.3125 L 4.9375 -10.40625 L 3.546875 -0.625 L 0.1875 -0.03125 L 5.125 -31.203125 L 8.8125 -31.859375 L 23.953125 -4.171875 L 20.453125 -3.5625 Z M 14.578125 -14.8125 L 12.21875 -19.296875 C 10.382812 -22.816406 8.789062 -25.96875 7.4375 -28.75 L 7.265625 -28.71875 C 6.910156 -24.9375 6.488281 -21.429688 6 -18.203125 L 5.3125 -13.1875 Z M 14.578125 -14.8125 "/></g></g></g><g fill="#000000" fill-opacity="1"><g transform="translate(45.771862, 212.398441)"><g><path d="M 7.4375 -0.75 C 6.21875 -0.539062 5.253906 -0.757812 4.546875 -1.40625 C 3.847656 -2.0625 3.363281 -3.140625 3.09375 -4.640625 L -1.78125 -32.625 L 1.453125 -33.203125 L 6.390625 -4.9375 C 6.472656 -4.4375 6.632812 -4.078125 6.875 -3.859375 C 7.113281 -3.640625 7.378906 -3.554688 7.671875 -3.609375 C 7.910156 -3.648438 8.175781 -3.722656 8.46875 -3.828125 L 9.359375 -1.390625 C 8.828125 -1.097656 8.1875 -0.882812 7.4375 -0.75 Z M 7.4375 -0.75 "/></g></g></g><g fill="#000000" fill-opacity="1"><g transform="translate(56.966195, 210.445789)"><g><path d="M -3.25 -21.8125 L 0.109375 -22.390625 L 6.609375 -10.46875 L 9.78125 -4.46875 L 9.96875 -4.515625 L 10.921875 -11.234375 L 13.015625 -24.640625 L 16.234375 -25.203125 L 12.21875 -2.125 L 8.46875 -1.484375 Z M -3.25 -21.8125 "/></g></g></g><g fill="#000000" fill-opacity="1"><g transform="translate(77.518985, 206.86072)"><g><path d="M 8.828125 -0.984375 C 6.972656 -0.660156 5.351562 -0.929688 3.96875 -1.796875 C 2.59375 -2.660156 1.734375 -4.066406 1.390625 -6.015625 C 0.984375 -8.359375 1.738281 -10.351562 3.65625 -12 C 5.582031 -13.644531 8.867188 -15.132812 13.515625 -16.46875 C 13.222656 -18.164062 12.628906 -19.5 11.734375 -20.46875 C 10.835938 -21.4375 9.535156 -21.769531 7.828125 -21.46875 C 5.765625 -21.113281 3.710938 -19.941406 1.671875 -17.953125 L -0.03125 -19.96875 C 2.507812 -22.375 5.15625 -23.816406 7.90625 -24.296875 C 10.40625 -24.734375 12.390625 -24.269531 13.859375 -22.90625 C 15.328125 -21.550781 16.300781 -19.503906 16.78125 -16.765625 L 19.125 -3.328125 L 16.4375 -2.875 L 15.6875 -5.453125 L 15.5625 -5.4375 C 13.363281 -2.875 11.117188 -1.390625 8.828125 -0.984375 Z M 9.21875 -3.78125 C 10.25 -3.957031 11.222656 -4.378906 12.140625 -5.046875 C 13.054688 -5.722656 14.007812 -6.679688 15 -7.921875 L 13.890625 -14.28125 C 10.234375 -13.1875 7.703125 -12.039062 6.296875 -10.84375 C 4.898438 -9.644531 4.335938 -8.28125 4.609375 -6.75 C 4.816406 -5.53125 5.34375 -4.675781 6.1875 -4.1875 C 7.03125 -3.707031 8.039062 -3.570312 9.21875 -3.78125 Z M 9.21875 -3.78125 "/></g></g></g><g fill="#000000" fill-opacity="1"><g transform="translate(99.952426, 202.947606)"><g><path d="M 0.015625 -22.375 L 2.71875 -22.859375 L 3.53125 -19.65625 L 3.671875 -19.6875 C 4.660156 -21.09375 5.671875 -22.222656 6.703125 -23.078125 C 7.734375 -23.929688 8.9375 -24.476562 10.3125 -24.71875 C 12.582031 -25.113281 14.378906 -24.695312 15.703125 -23.46875 C 17.023438 -22.238281 17.929688 -20.222656 18.421875 -17.421875 L 20.828125 -3.625 L 17.546875 -3.0625 L 15.21875 -16.453125 C 14.851562 -18.535156 14.25 -19.992188 13.40625 -20.828125 C 12.5625 -21.671875 11.378906 -21.960938 9.859375 -21.703125 C 8.785156 -21.515625 7.832031 -21.0625 7 -20.34375 C 6.175781 -19.632812 5.265625 -18.566406 4.265625 -17.140625 L 7.03125 -1.234375 L 3.796875 -0.65625 Z M 0.015625 -22.375 "/></g></g></g><g fill="#000000" fill-opacity="1"><g transform="translate(124.266515, 198.706446)"><g><path d="M 1.046875 -1.96875 L 9.796875 -21.3125 L -0.671875 -19.5 L -1.140625 -22.1875 L 13.453125 -24.71875 L 13.75 -22.96875 L 5 -3.640625 L 17.171875 -5.765625 L 17.640625 -3.078125 L 1.34375 -0.234375 Z M 1.046875 -1.96875 "/></g></g></g><g fill="#000000" fill-opacity="1"><g transform="translate(143.028219, 195.433801)"><g><path d="M 8.828125 -0.984375 C 6.972656 -0.660156 5.351562 -0.929688 3.96875 -1.796875 C 2.59375 -2.660156 1.734375 -4.066406 1.390625 -6.015625 C 0.984375 -8.359375 1.738281 -10.351562 3.65625 -12 C 5.582031 -13.644531 8.867188 -15.132812 13.515625 -16.46875 C 13.222656 -18.164062 12.628906 -19.5 11.734375 -20.46875 C 10.835938 -21.4375 9.535156 -21.769531 7.828125 -21.46875 C 5.765625 -21.113281 3.710938 -19.941406 1.671875 -17.953125 L -0.03125 -19.96875 C 2.507812 -22.375 5.15625 -23.816406 7.90625 -24.296875 C 10.40625 -24.734375 12.390625 -24.269531 13.859375 -22.90625 C 15.328125 -21.550781 16.300781 -19.503906 16.78125 -16.765625 L 19.125 -3.328125 L 16.4375 -2.875 L 15.6875 -5.453125 L 15.5625 -5.4375 C 13.363281 -2.875 11.117188 -1.390625 8.828125 -0.984375 Z M 9.21875 -3.78125 C 10.25 -3.957031 11.222656 -4.378906 12.140625 -5.046875 C 13.054688 -5.722656 14.007812 -6.679688 15 -7.921875 L 13.890625 -14.28125 C 10.234375 -13.1875 7.703125 -12.039062 6.296875 -10.84375 C 4.898438 -9.644531 4.335938 -8.28125 4.609375 -6.75 C 4.816406 -5.53125 5.34375 -4.675781 6.1875 -4.1875 C 7.03125 -3.707031 8.039062 -3.570312 9.21875 -3.78125 Z M 9.21875 -3.78125 "/></g></g></g><g fill="#000000" fill-opacity="1"><g transform="translate(165.459411, 191.521078)"><g/></g></g><g fill="#ffde00" fill-opacity="1"><g transform="translate(22.129786, 214.774345)"><g><path d="M 15.890625 -12.3125 L 4.9375 -10.40625 L 3.546875 -0.625 L 0.1875 -0.03125 L 5.125 -31.203125 L 8.8125 -31.859375 L 23.953125 -4.171875 L 20.453125 -3.5625 Z M 14.578125 -14.8125 L 12.21875 -19.296875 C 10.382812 -22.816406 8.789062 -25.96875 7.4375 -28.75 L 7.265625 -28.71875 C 6.910156 -24.9375 6.488281 -21.429688 6 -18.203125 L 5.3125 -13.1875 Z M 14.578125 -14.8125 "/></g></g></g><g fill="#ffde00" fill-opacity="1"><g transform="translate(46.264763, 210.564428)"><g><path d="M 7.4375 -0.75 C 6.21875 -0.539062 5.253906 -0.757812 4.546875 -1.40625 C 3.847656 -2.0625 3.363281 -3.140625 3.09375 -4.640625 L -1.78125 -32.625 L 1.453125 -33.203125 L 6.390625 -4.9375 C 6.472656 -4.4375 6.632812 -4.078125 6.875 -3.859375 C 7.113281 -3.640625 7.378906 -3.554688 7.671875 -3.609375 C 7.910156 -3.648438 8.175781 -3.722656 8.46875 -3.828125 L 9.359375 -1.390625 C 8.828125 -1.097656 8.1875 -0.882812 7.4375 -0.75 Z M 7.4375 -0.75 "/></g></g></g><g fill="#ffde00" fill-opacity="1"><g transform="translate(57.459096, 208.611776)"><g><path d="M -3.25 -21.8125 L 0.109375 -22.390625 L 6.609375 -10.46875 L 9.78125 -4.46875 L 9.96875 -4.515625 L 10.921875 -11.234375 L 13.015625 -24.640625 L 16.234375 -25.203125 L 12.21875 -2.125 L 8.46875 -1.484375 Z M -3.25 -21.8125 "/></g></g></g><g fill="#ffde00" fill-opacity="1"><g transform="translate(78.011886, 205.026708)"><g><path d="M 8.828125 -0.984375 C 6.972656 -0.660156 5.351562 -0.929688 3.96875 -1.796875 C 2.59375 -2.660156 1.734375 -4.066406 1.390625 -6.015625 C 0.984375 -8.359375 1.738281 -10.351562 3.65625 -12 C 5.582031 -13.644531 8.867188 -15.132812 13.515625 -16.46875 C 13.222656 -18.164062 12.628906 -19.5 11.734375 -20.46875 C 10.835938 -21.4375 9.535156 -21.769531 7.828125 -21.46875 C 5.765625 -21.113281 3.710938 -19.941406 1.671875 -17.953125 L -0.03125 -19.96875 C 2.507812 -22.375 5.15625 -23.816406 7.90625 -24.296875 C 10.40625 -24.734375 12.390625 -24.269531 13.859375 -22.90625 C 15.328125 -21.550781 16.300781 -19.503906 16.78125 -16.765625 L 19.125 -3.328125 L 16.4375 -2.875 L 15.6875 -5.453125 L 15.5625 -5.4375 C 13.363281 -2.875 11.117188 -1.390625 8.828125 -0.984375 Z M 9.21875 -3.78125 C 10.25 -3.957031 11.222656 -4.378906 12.140625 -5.046875 C 13.054688 -5.722656 14.007812 -6.679688 15 -7.921875 L 13.890625 -14.28125 C 10.234375 -13.1875 7.703125 -12.039062 6.296875 -10.84375 C 4.898438 -9.644531 4.335938 -8.28125 4.609375 -6.75 C 4.816406 -5.53125 5.34375 -4.675781 6.1875 -4.1875 C 7.03125 -3.707031 8.039062 -3.570312 9.21875 -3.78125 Z M 9.21875 -3.78125 "/></g></g></g><g fill="#ffde00" fill-opacity="1"><g transform="translate(100.445326, 201.113593)"><g><path d="M 0.015625 -22.375 L 2.71875 -22.859375 L 3.53125 -19.65625 L 3.671875 -19.6875 C 4.660156 -21.09375 5.671875 -22.222656 6.703125 -23.078125 C 7.734375 -23.929688 8.9375 -24.476562 10.3125 -24.71875 C 12.582031 -25.113281 14.378906 -24.695312 15.703125 -23.46875 C 17.023438 -22.238281 17.929688 -20.222656 18.421875 -17.421875 L 20.828125 -3.625 L 17.546875 -3.0625 L 15.21875 -16.453125 C 14.851562 -18.535156 14.25 -19.992188 13.40625 -20.828125 C 12.5625 -21.671875 11.378906 -21.960938 9.859375 -21.703125 C 8.785156 -21.515625 7.832031 -21.0625 7 -20.34375 C 6.175781 -19.632812 5.265625 -18.566406 4.265625 -17.140625 L 7.03125 -1.234375 L 3.796875 -0.65625 Z M 0.015625 -22.375 "/></g></g></g><g fill="#ffde00" fill-opacity="1"><g transform="translate(124.759415, 196.872433)"><g><path d="M 1.046875 -1.96875 L 9.796875 -21.3125 L -0.671875 -19.5 L -1.140625 -22.1875 L 13.453125 -24.71875 L 13.75 -22.96875 L 5 -3.640625 L 17.171875 -5.765625 L 17.640625 -3.078125 L 1.34375 -0.234375 Z M 1.046875 -1.96875 "/></g></g></g><g fill="#ffde00" fill-opacity="1"><g transform="translate(143.521119, 193.599788)"><g><path d="M 8.828125 -0.984375 C 6.972656 -0.660156 5.351562 -0.929688 3.96875 -1.796875 C 2.59375 -2.660156 1.734375 -4.066406 1.390625 -6.015625 C 0.984375 -8.359375 1.738281 -10.351562 3.65625 -12 C 5.582031 -13.644531 8.867188 -15.132812 13.515625 -16.46875 C 13.222656 -18.164062 12.628906 -19.5 11.734375 -20.46875 C 10.835938 -21.4375 9.535156 -21.769531 7.828125 -21.46875 C 5.765625 -21.113281 3.710938 -19.941406 1.671875 -17.953125 L -0.03125 -19.96875 C 2.507812 -22.375 5.15625 -23.816406 7.90625 -24.296875 C 10.40625 -24.734375 12.390625 -24.269531 13.859375 -22.90625 C 15.328125 -21.550781 16.300781 -19.503906 16.78125 -16.765625 L 19.125 -3.328125 L 16.4375 -2.875 L 15.6875 -5.453125 L 15.5625 -5.4375 C 13.363281 -2.875 11.117188 -1.390625 8.828125 -0.984375 Z M 9.21875 -3.78125 C 10.25 -3.957031 11.222656 -4.378906 12.140625 -5.046875 C 13.054688 -5.722656 14.007812 -6.679688 15 -7.921875 L 13.890625 -14.28125 C 10.234375 -13.1875 7.703125 -12.039062 6.296875 -10.84375 C 4.898438 -9.644531 4.335938 -8.28125 4.609375 -6.75 C 4.816406 -5.53125 5.34375 -4.675781 6.1875 -4.1875 C 7.03125 -3.707031 8.039062 -3.570312 9.21875 -3.78125 Z M 9.21875 -3.78125 "/></g></g></g><g fill="#ffde00" fill-opacity="1"><g transform="translate(165.952312, 189.687066)"><g/></g></g><g clip-path="url(#4a307c17a5)"><g clip-path="url(#eef16cc748)"><path fill="#000000" d="M 21.082031 121.878906 L 172.339844 121.878906 L 172.339844 266.296875 L 21.082031 266.296875 Z M 21.082031 121.878906 " fill-opacity="1" fill-rule="nonzero"/></g></g><g clip-path="url(#c57b13333f)"><g clip-path="url(#11424f61bc)"><path fill="#ac1e0b" d="M 22.972656 123.117188 L 170.300781 123.117188 L 170.300781 260.898438 L 22.972656 260.898438 Z M 22.972656 123.117188 " fill-opacity="1" fill-rule="nonzero"/></g></g><path fill="#000000" d="M 133.808594 152.109375 C 133.441406 143.480469 129.925781 135.433594 123.808594 129.3125 C 117.441406 122.914062 108.980469 119.347656 99.972656 119.261719 C 99.894531 119.257812 99.855469 119.257812 99.808594 119.253906 C 99.738281 119.25 99.675781 119.246094 99.601562 119.25 L 93.332031 119.25 C 93.25 119.25 93.183594 119.246094 93.109375 119.253906 C 74.789062 119.445312 59.90625 134.042969 59.125 152.109375 Z M 85.953125 122.285156 C 87.171875 122.007812 88.4375 121.808594 89.714844 121.683594 C 90.527344 121.613281 91.257812 122.203125 91.335938 123.023438 C 91.414062 123.839844 90.816406 124.570312 90 124.648438 C 88.847656 124.761719 87.703125 124.941406 86.609375 125.191406 C 86.5 125.214844 86.390625 125.226562 86.28125 125.226562 C 85.601562 125.226562 84.988281 124.757812 84.832031 124.066406 C 84.652344 123.261719 85.152344 122.464844 85.953125 122.285156 Z M 79.683594 124.503906 C 80.421875 124.140625 81.308594 124.441406 81.671875 125.179688 C 82.035156 125.917969 81.730469 126.8125 80.996094 127.175781 C 69.914062 132.660156 66.171875 144.9375 66.136719 145.0625 C 65.945312 145.707031 65.351562 146.128906 64.710938 146.128906 C 64.570312 146.128906 64.433594 146.109375 64.289062 146.066406 C 63.503906 145.832031 63.054688 145.007812 63.289062 144.21875 C 63.449219 143.664062 67.40625 130.578125 79.683594 124.503906 Z M 79.683594 124.503906 " fill-opacity="1" fill-rule="nonzero"/><g clip-path="url(#431a73329d)"><path fill="#000000" d="M 94.433594 112.980469 L 94.433594 116.273438 L 98.5 116.273438 L 98.5 112.980469 C 98.5 112.445312 98.28125 111.914062 97.898438 111.519531 C 97.53125 111.148438 97.019531 110.941406 96.46875 110.941406 C 95.34375 110.941406 94.433594 111.855469 94.433594 112.980469 Z M 94.433594 112.980469 " fill-opacity="1" fill-rule="nonzero"/></g><g clip-path="url(#9356342f2e)"><path fill="#000000" d="M 136.582031 155.089844 L 135.347656 155.089844 C 135.339844 155.089844 135.332031 155.09375 135.324219 155.09375 L 57.609375 155.09375 C 57.601562 155.09375 57.59375 155.089844 57.585938 155.089844 L 56.351562 155.089844 C 55.546875 155.089844 54.890625 155.746094 54.890625 156.554688 L 54.890625 157.992188 C 54.890625 158.800781 55.546875 159.457031 56.351562 159.457031 L 136.582031 159.457031 C 137.386719 159.457031 138.042969 158.800781 138.042969 157.992188 L 138.042969 156.554688 C 138.042969 155.746094 137.386719 155.089844 136.582031 155.089844 Z M 136.582031 155.089844 " fill-opacity="1" fill-rule="nonzero"/></g><path fill="#737373" d="M 133.808594 154.035156 C 133.441406 145.40625 129.925781 137.359375 123.808594 131.238281 C 117.441406 124.839844 108.980469 121.273438 99.972656 121.1875 C 99.894531 121.183594 99.855469 121.183594 99.808594 121.179688 C 99.738281 121.175781 99.675781 121.171875 99.601562 121.175781 L 93.332031 121.175781 C 93.25 121.175781 93.183594 121.171875 93.109375 121.179688 C 74.789062 121.371094 59.90625 135.96875 59.125 154.035156 Z M 85.953125 124.210938 C 87.171875 123.933594 88.4375 123.734375 89.714844 123.609375 C 90.527344 123.539062 91.257812 124.128906 91.335938 124.949219 C 91.414062 125.765625 90.816406 126.496094 90 126.574219 C 88.847656 126.6875 87.703125 126.867188 86.609375 127.117188 C 86.5 127.140625 86.390625 127.152344 86.28125 127.152344 C 85.601562 127.152344 84.988281 126.683594 84.832031 125.992188 C 84.652344 125.1875 85.152344 124.390625 85.953125 124.210938 Z M 79.683594 126.429688 C 80.421875 126.066406 81.308594 126.367188 81.671875 127.105469 C 82.035156 127.84375 81.730469 128.738281 80.996094 129.101562 C 69.914062 134.585938 66.171875 146.863281 66.136719 146.988281 C 65.945312 147.632812 65.351562 148.054688 64.710938 148.054688 C 64.570312 148.054688 64.433594 148.035156 64.289062 147.992188 C 63.503906 147.757812 63.054688 146.933594 63.289062 146.144531 C 63.449219 145.589844 67.40625 132.503906 79.683594 126.429688 Z M 79.683594 126.429688 " fill-opacity="1" fill-rule="nonzero"/><g clip-path="url(#3a67129924)"><path fill="#737373" d="M 94.433594 114.90625 L 94.433594 118.199219 L 98.5 118.199219 L 98.5 114.90625 C 98.5 114.371094 98.28125 113.839844 97.898438 113.445312 C 97.53125 113.074219 97.019531 112.867188 96.46875 112.867188 C 95.34375 112.867188 94.433594 113.78125 94.433594 114.90625 Z M 94.433594 114.90625 " fill-opacity="1" fill-rule="nonzero"/></g><g clip-path="url(#f87fa68339)"><path fill="#737373" d="M 136.582031 157.015625 L 135.347656 157.015625 C 135.339844 157.015625 135.332031 157.019531 135.324219 157.019531 L 57.609375 157.019531 C 57.601562 157.019531 57.59375 157.015625 57.585938 157.015625 L 56.351562 157.015625 C 55.546875 157.015625 54.890625 157.671875 54.890625 158.480469 L 54.890625 159.917969 C 54.890625 160.726562 55.546875 161.382812 56.351562 161.382812 L 136.582031 161.382812 C 137.386719 161.382812 138.042969 160.726562 138.042969 159.917969 L 138.042969 158.480469 C 138.042969 157.671875 137.386719 157.015625 136.582031 157.015625 Z M 136.582031 157.015625 " fill-opacity="1" fill-rule="nonzero"/></g><g fill="#ffde00" fill-opacity="1"><g transform="translate(77.56384, 218.035974)"><g><path d="M 0.46875 -8.296875 L 7.125 -8.640625 L 7.21875 -6.65625 L 3.21875 -6.453125 L 3.296875 -5.046875 L 6.734375 -5.21875 L 6.828125 -3.328125 L 3.390625 -3.15625 L 3.546875 -0.1875 L 0.890625 -0.046875 Z M 0.46875 -8.296875 "/></g></g></g><g fill="#ffde00" fill-opacity="1"><g transform="translate(85.567577, 217.627033)"><g><path d="M 4.578125 -8.640625 C 5.992188 -8.710938 7.109375 -8.40625 7.921875 -7.71875 C 8.734375 -7.03125 9.171875 -6 9.234375 -4.625 C 9.304688 -3.226562 8.972656 -2.144531 8.234375 -1.375 C 7.492188 -0.601562 6.414062 -0.179688 5 -0.109375 C 3.570312 -0.0351562 2.453125 -0.34375 1.640625 -1.03125 C 0.835938 -1.71875 0.398438 -2.765625 0.328125 -4.171875 C 0.265625 -5.554688 0.597656 -6.628906 1.328125 -7.390625 C 2.066406 -8.148438 3.148438 -8.566406 4.578125 -8.640625 Z M 4.671875 -6.65625 C 4.097656 -6.632812 3.671875 -6.445312 3.390625 -6.09375 C 3.109375 -5.738281 2.984375 -5.269531 3.015625 -4.6875 L 3.0625 -3.921875 C 3.09375 -3.335938 3.265625 -2.878906 3.578125 -2.546875 C 3.890625 -2.222656 4.332031 -2.070312 4.90625 -2.09375 C 5.476562 -2.125 5.898438 -2.316406 6.171875 -2.671875 C 6.453125 -3.035156 6.578125 -3.507812 6.546875 -4.09375 L 6.5 -4.859375 C 6.46875 -5.441406 6.296875 -5.894531 5.984375 -6.21875 C 5.679688 -6.539062 5.242188 -6.6875 4.671875 -6.65625 Z M 4.671875 -6.65625 "/></g></g></g><g fill="#ffde00" fill-opacity="1"><g transform="translate(95.563245, 217.116316)"><g><path d="M 4.578125 -8.640625 C 5.992188 -8.710938 7.109375 -8.40625 7.921875 -7.71875 C 8.734375 -7.03125 9.171875 -6 9.234375 -4.625 C 9.304688 -3.226562 8.972656 -2.144531 8.234375 -1.375 C 7.492188 -0.601562 6.414062 -0.179688 5 -0.109375 C 3.570312 -0.0351562 2.453125 -0.34375 1.640625 -1.03125 C 0.835938 -1.71875 0.398438 -2.765625 0.328125 -4.171875 C 0.265625 -5.554688 0.597656 -6.628906 1.328125 -7.390625 C 2.066406 -8.148438 3.148438 -8.566406 4.578125 -8.640625 Z M 4.671875 -6.65625 C 4.097656 -6.632812 3.671875 -6.445312 3.390625 -6.09375 C 3.109375 -5.738281 2.984375 -5.269531 3.015625 -4.6875 L 3.0625 -3.921875 C 3.09375 -3.335938 3.265625 -2.878906 3.578125 -2.546875 C 3.890625 -2.222656 4.332031 -2.070312 4.90625 -2.09375 C 5.476562 -2.125 5.898438 -2.316406 6.171875 -2.671875 C 6.453125 -3.035156 6.578125 -3.507812 6.546875 -4.09375 L 6.5 -4.859375 C 6.46875 -5.441406 6.296875 -5.894531 5.984375 -6.21875 C 5.679688 -6.539062 5.242188 -6.6875 4.671875 -6.65625 Z M 4.671875 -6.65625 "/></g></g></g><g fill="#ffde00" fill-opacity="1"><g transform="translate(105.558914, 216.605599)"><g><path d="M 4.046875 -8.484375 C 6.929688 -8.628906 8.441406 -7.332031 8.578125 -4.59375 C 8.722656 -1.832031 7.351562 -0.378906 4.46875 -0.234375 L 0.890625 -0.046875 L 0.46875 -8.296875 Z M 3.453125 -2.171875 L 4.328125 -2.203125 C 5.429688 -2.265625 5.953125 -2.890625 5.890625 -4.078125 L 5.84375 -4.8125 C 5.78125 -5.988281 5.195312 -6.546875 4.09375 -6.484375 L 3.21875 -6.453125 Z M 3.453125 -2.171875 "/></g></g></g><g fill="#ffde00" fill-opacity="1"><g transform="translate(114.894606, 216.128603)"><g/></g></g><g fill="#ffde00" fill-opacity="1"><g transform="translate(118.890473, 215.924439)"><g><path d="M 4.40625 -8.640625 C 5.625 -8.703125 6.601562 -8.445312 7.34375 -7.875 C 8.09375 -7.300781 8.492188 -6.445312 8.546875 -5.3125 L 6 -5.171875 C 5.976562 -5.660156 5.835938 -6.035156 5.578125 -6.296875 C 5.316406 -6.554688 4.953125 -6.675781 4.484375 -6.65625 C 3.953125 -6.625 3.566406 -6.4375 3.328125 -6.09375 C 3.085938 -5.757812 2.984375 -5.289062 3.015625 -4.6875 L 3.0625 -3.921875 C 3.09375 -3.328125 3.242188 -2.863281 3.515625 -2.53125 C 3.785156 -2.207031 4.179688 -2.0625 4.703125 -2.09375 C 5.210938 -2.113281 5.585938 -2.257812 5.828125 -2.53125 C 6.078125 -2.8125 6.191406 -3.195312 6.171875 -3.6875 L 8.625 -3.8125 C 8.6875 -2.675781 8.382812 -1.789062 7.71875 -1.15625 C 7.050781 -0.519531 6.085938 -0.171875 4.828125 -0.109375 C 3.421875 -0.0351562 2.335938 -0.335938 1.578125 -1.015625 C 0.816406 -1.703125 0.398438 -2.753906 0.328125 -4.171875 C 0.265625 -5.566406 0.578125 -6.640625 1.265625 -7.390625 C 1.953125 -8.148438 3 -8.566406 4.40625 -8.640625 Z M 4.40625 -8.640625 "/></g></g></g><g fill="#ffde00" fill-opacity="1"><g transform="translate(128.226165, 215.447443)"><g><path d="M 4.578125 -8.640625 C 5.992188 -8.710938 7.109375 -8.40625 7.921875 -7.71875 C 8.734375 -7.03125 9.171875 -6 9.234375 -4.625 C 9.304688 -3.226562 8.972656 -2.144531 8.234375 -1.375 C 7.492188 -0.601562 6.414062 -0.179688 5 -0.109375 C 3.570312 -0.0351562 2.453125 -0.34375 1.640625 -1.03125 C 0.835938 -1.71875 0.398438 -2.765625 0.328125 -4.171875 C 0.265625 -5.554688 0.597656 -6.628906 1.328125 -7.390625 C 2.066406 -8.148438 3.148438 -8.566406 4.578125 -8.640625 Z M 4.671875 -6.65625 C 4.097656 -6.632812 3.671875 -6.445312 3.390625 -6.09375 C 3.109375 -5.738281 2.984375 -5.269531 3.015625 -4.6875 L 3.0625 -3.921875 C 3.09375 -3.335938 3.265625 -2.878906 3.578125 -2.546875 C 3.890625 -2.222656 4.332031 -2.070312 4.90625 -2.09375 C 5.476562 -2.125 5.898438 -2.316406 6.171875 -2.671875 C 6.453125 -3.035156 6.578125 -3.507812 6.546875 -4.09375 L 6.5 -4.859375 C 6.46875 -5.441406 6.296875 -5.894531 5.984375 -6.21875 C 5.679688 -6.539062 5.242188 -6.6875 4.671875 -6.65625 Z M 4.671875 -6.65625 "/></g></g></g><g fill="#ffde00" fill-opacity="1"><g transform="translate(138.221834, 214.936726)"><g><path d="M 8.9375 -3.796875 C 9 -2.671875 8.6875 -1.789062 8 -1.15625 C 7.3125 -0.53125 6.316406 -0.179688 5.015625 -0.109375 C 3.703125 -0.046875 2.671875 -0.289062 1.921875 -0.84375 C 1.179688 -1.40625 0.78125 -2.25 0.71875 -3.375 L 0.46875 -8.296875 L 3.125 -8.4375 L 3.375 -3.546875 C 3.394531 -3.085938 3.535156 -2.722656 3.796875 -2.453125 C 4.066406 -2.191406 4.4375 -2.070312 4.90625 -2.09375 C 5.375 -2.125 5.722656 -2.28125 5.953125 -2.5625 C 6.191406 -2.851562 6.300781 -3.226562 6.28125 -3.6875 L 6.03125 -8.578125 L 8.6875 -8.71875 Z M 8.9375 -3.796875 "/></g></g></g><g fill="#ffde00" fill-opacity="1"><g transform="translate(148.217502, 214.426009)"><g><path d="M 8.421875 -6.1875 C 8.453125 -5.675781 8.34375 -5.207031 8.09375 -4.78125 C 7.84375 -4.363281 7.460938 -4.039062 6.953125 -3.8125 L 8.953125 -0.453125 L 5.984375 -0.3125 L 4.375 -3.25 L 3.390625 -3.203125 L 3.546875 -0.1875 L 0.890625 -0.046875 L 0.46875 -8.296875 L 5.53125 -8.546875 C 6.113281 -8.578125 6.617188 -8.488281 7.046875 -8.28125 C 7.472656 -8.070312 7.800781 -7.78125 8.03125 -7.40625 C 8.269531 -7.039062 8.398438 -6.632812 8.421875 -6.1875 Z M 5.734375 -5.9375 C 5.722656 -6.15625 5.640625 -6.328125 5.484375 -6.453125 C 5.335938 -6.578125 5.160156 -6.632812 4.953125 -6.625 L 3.21875 -6.546875 L 3.296875 -5.046875 L 5.03125 -5.125 C 5.238281 -5.132812 5.410156 -5.21875 5.546875 -5.375 C 5.679688 -5.53125 5.742188 -5.71875 5.734375 -5.9375 Z M 5.734375 -5.9375 "/></g></g></g><g fill="#ffde00" fill-opacity="1"><g transform="translate(157.553195, 213.949013)"><g><path d="M 5.328125 -6.421875 L 5.640625 -0.28125 L 2.984375 -0.15625 L 2.671875 -6.296875 L -0.03125 -6.15625 L -0.140625 -8.265625 L 7.90625 -8.671875 L 8.015625 -6.5625 Z M 5.328125 -6.421875 "/></g></g></g><g fill="#000000" fill-opacity="1"><g transform="translate(7.999141, 218.134885)"><g><path d="M 43.0625 0 L 40.734375 -7.8125 L 21.328125 -7.8125 L 19 0 L 0.8125 0 L 21.015625 -55.390625 L 41.703125 -55.390625 L 61.90625 0 Z M 25.03125 -20.203125 L 37.03125 -20.203125 L 31.234375 -39.921875 L 30.90625 -39.921875 Z M 25.03125 -20.203125 "/></g></g></g><g fill="#000000" fill-opacity="1"><g transform="translate(67.277688, 201.065575)"><g><path d="M 0.15625 -30.390625 L 5.171875 -30.734375 L 7.28125 -0.5 L 2.265625 -0.15625 Z M 0.15625 -30.390625 "/></g></g></g><g fill="#000000" fill-opacity="1"><g transform="translate(76.812505, 200.400901)"><g><path d="M -1.359375 -22.015625 L 3.90625 -22.375 L 7.40625 -13.125 C 7.6875 -12.4375 8.035156 -11.3125 8.453125 -9.75 C 8.867188 -8.1875 9.132812 -7.140625 9.25 -6.609375 L 9.421875 -6.625 C 9.460938 -7.125 9.550781 -8.15625 9.6875 -9.71875 C 9.832031 -11.289062 10.003906 -12.488281 10.203125 -13.3125 L 12.359375 -22.96875 L 17.375 -23.3125 L 12.078125 -0.84375 L 6.984375 -0.484375 Z M -1.359375 -22.015625 "/></g></g></g><g fill="#000000" fill-opacity="1"><g transform="translate(95.88214, 199.071551)"><g><path d="M 6.140625 0.078125 C 4.765625 0.171875 3.46875 -0.207031 2.25 -1.0625 C 1.039062 -1.925781 0.359375 -3.484375 0.203125 -5.734375 C 0.00390625 -8.515625 0.804688 -10.554688 2.609375 -11.859375 C 4.421875 -13.171875 7.070312 -13.945312 10.5625 -14.1875 L 10.40625 -16.484375 C 10.34375 -17.335938 10.132812 -17.992188 9.78125 -18.453125 C 9.425781 -18.910156 8.804688 -19.109375 7.921875 -19.046875 C 7.003906 -18.984375 6.347656 -18.703125 5.953125 -18.203125 C 5.566406 -17.710938 5.394531 -17.160156 5.4375 -16.546875 L 5.484375 -15.9375 L 0.59375 -15.59375 C 0.5625 -15.757812 0.53125 -16.0625 0.5 -16.5 C 0.375 -18.34375 0.945312 -19.863281 2.21875 -21.0625 C 3.488281 -22.269531 5.253906 -22.953125 7.515625 -23.109375 C 10.023438 -23.285156 11.9375 -22.863281 13.25 -21.84375 C 14.5625 -20.820312 15.289062 -19.269531 15.4375 -17.1875 L 16.1875 -6.34375 C 16.21875 -5.832031 16.351562 -5.46875 16.59375 -5.25 C 16.832031 -5.03125 17.125 -4.929688 17.46875 -4.953125 L 18.46875 -5.03125 L 18.71875 -1.484375 C 17.90625 -0.972656 16.929688 -0.675781 15.796875 -0.59375 C 14.828125 -0.53125 13.976562 -0.734375 13.25 -1.203125 C 12.53125 -1.671875 12.015625 -2.34375 11.703125 -3.21875 L 11.5 -3.203125 C 10.863281 -2.171875 10.148438 -1.390625 9.359375 -0.859375 C 8.578125 -0.328125 7.503906 -0.015625 6.140625 0.078125 Z M 7.953125 -4.25 C 9.054688 -4.320312 9.847656 -4.820312 10.328125 -5.75 C 10.816406 -6.6875 11.007812 -7.867188 10.90625 -9.296875 L 10.828125 -10.53125 C 9.128906 -10.414062 7.757812 -10.050781 6.71875 -9.4375 C 5.6875 -8.832031 5.21875 -7.867188 5.3125 -6.546875 C 5.363281 -5.765625 5.601562 -5.171875 6.03125 -4.765625 C 6.46875 -4.359375 7.109375 -4.1875 7.953125 -4.25 Z M 7.953125 -4.25 "/></g></g></g><g fill="#000000" fill-opacity="1"><g transform="translate(114.951775, 197.742201)"><g><path d="M 0.78125 -22.15625 L 4.953125 -22.453125 L 5.640625 -19.765625 L 5.890625 -19.78125 C 6.472656 -20.78125 7.203125 -21.609375 8.078125 -22.265625 C 8.953125 -22.921875 10.003906 -23.289062 11.234375 -23.375 C 13.046875 -23.5 14.515625 -23.035156 15.640625 -21.984375 C 16.765625 -20.929688 17.410156 -19.179688 17.578125 -16.734375 L 18.65625 -1.296875 L 13.640625 -0.953125 L 12.65625 -15 C 12.5625 -16.363281 12.25 -17.332031 11.71875 -17.90625 C 11.1875 -18.488281 10.445312 -18.75 9.5 -18.6875 C 8.53125 -18.613281 7.742188 -18.128906 7.140625 -17.234375 C 6.546875 -16.347656 6.296875 -15.289062 6.390625 -14.0625 L 7.328125 -0.515625 L 2.3125 -0.15625 Z M 0.78125 -22.15625 "/></g></g></g><g fill="#000000" fill-opacity="1"><g transform="translate(135.903282, 196.281666)"><g><path d="M 0.59375 -2.1875 L 8.0625 -18.40625 L 0.015625 -17.859375 L -0.28125 -22.09375 L 14.5625 -23.125 L 14.703125 -21.03125 L 7.234375 -4.75 L 16.09375 -5.359375 L 16.390625 -1.140625 L 0.75 -0.046875 Z M 0.59375 -2.1875 "/></g></g></g><g fill="#000000" fill-opacity="1"><g transform="translate(153.049226, 195.086417)"><g><path d="M 6.140625 0.078125 C 4.765625 0.171875 3.46875 -0.207031 2.25 -1.0625 C 1.039062 -1.925781 0.359375 -3.484375 0.203125 -5.734375 C 0.00390625 -8.515625 0.804688 -10.554688 2.609375 -11.859375 C 4.421875 -13.171875 7.070312 -13.945312 10.5625 -14.1875 L 10.40625 -16.484375 C 10.34375 -17.335938 10.132812 -17.992188 9.78125 -18.453125 C 9.425781 -18.910156 8.804688 -19.109375 7.921875 -19.046875 C 7.003906 -18.984375 6.347656 -18.703125 5.953125 -18.203125 C 5.566406 -17.710938 5.394531 -17.160156 5.4375 -16.546875 L 5.484375 -15.9375 L 0.59375 -15.59375 C 0.5625 -15.757812 0.53125 -16.0625 0.5 -16.5 C 0.375 -18.34375 0.945312 -19.863281 2.21875 -21.0625 C 3.488281 -22.269531 5.253906 -22.953125 7.515625 -23.109375 C 10.023438 -23.285156 11.9375 -22.863281 13.25 -21.84375 C 14.5625 -20.820312 15.289062 -19.269531 15.4375 -17.1875 L 16.1875 -6.34375 C 16.21875 -5.832031 16.351562 -5.46875 16.59375 -5.25 C 16.832031 -5.03125 17.125 -4.929688 17.46875 -4.953125 L 18.46875 -5.03125 L 18.71875 -1.484375 C 17.90625 -0.972656 16.929688 -0.675781 15.796875 -0.59375 C 14.828125 -0.53125 13.976562 -0.734375 13.25 -1.203125 C 12.53125 -1.671875 12.015625 -2.34375 11.703125 -3.21875 L 11.5 -3.203125 C 10.863281 -2.171875 10.148438 -1.390625 9.359375 -0.859375 C 8.578125 -0.328125 7.503906 -0.015625 6.140625 0.078125 Z M 7.953125 -4.25 C 9.054688 -4.320312 9.847656 -4.820312 10.328125 -5.75 C 10.816406 -6.6875 11.007812 -7.867188 10.90625 -9.296875 L 10.828125 -10.53125 C 9.128906 -10.414062 7.757812 -10.050781 6.71875 -9.4375 C 5.6875 -8.832031 5.21875 -7.867188 5.3125 -6.546875 C 5.363281 -5.765625 5.601562 -5.171875 6.03125 -4.765625 C 6.46875 -4.359375 7.109375 -4.1875 7.953125 -4.25 Z M 7.953125 -4.25 "/></g></g></g><g fill="#ffde00" fill-opacity="1"><g transform="translate(11.932298, 215.798766)"><g><path d="M 40.15625 0 L 37.984375 -7.28125 L 19.890625 -7.28125 L 17.71875 0 L 0.75 0 L 19.59375 -51.640625 L 38.875 -51.640625 L 57.71875 0 Z M 23.34375 -18.84375 L 34.53125 -18.84375 L 29.125 -37.234375 L 28.828125 -37.234375 Z M 23.34375 -18.84375 "/></g></g></g><g fill="#ffde00" fill-opacity="1"><g transform="translate(66.333365, 199.487964)"><g><path d="M 0.15625 -29.890625 L 5.078125 -30.234375 L 7.15625 -0.5 L 2.234375 -0.15625 Z M 0.15625 -29.890625 "/></g></g></g><g fill="#ffde00" fill-opacity="1"><g transform="translate(75.710716, 198.834267)"><g><path d="M -1.34375 -21.65625 L 3.828125 -22.015625 L 7.296875 -12.90625 C 7.566406 -12.238281 7.90625 -11.132812 8.3125 -9.59375 C 8.71875 -8.050781 8.984375 -7.019531 9.109375 -6.5 L 9.25 -6.515625 C 9.300781 -7.015625 9.394531 -8.03125 9.53125 -9.5625 C 9.675781 -11.101562 9.84375 -12.285156 10.03125 -13.109375 L 12.140625 -22.59375 L 17.078125 -22.9375 L 11.890625 -0.828125 L 6.875 -0.484375 Z M -1.34375 -21.65625 "/></g></g></g><g fill="#ffde00" fill-opacity="1"><g transform="translate(94.465422, 197.526871)"><g><path d="M 6.03125 0.078125 C 4.6875 0.171875 3.414062 -0.203125 2.21875 -1.046875 C 1.019531 -1.890625 0.34375 -3.421875 0.1875 -5.640625 C 0 -8.378906 0.796875 -10.390625 2.578125 -11.671875 C 4.359375 -12.953125 6.960938 -13.707031 10.390625 -13.9375 L 10.234375 -16.21875 C 10.179688 -17.050781 9.976562 -17.691406 9.625 -18.140625 C 9.269531 -18.585938 8.660156 -18.78125 7.796875 -18.71875 C 6.878906 -18.65625 6.226562 -18.382812 5.84375 -17.90625 C 5.46875 -17.425781 5.300781 -16.890625 5.34375 -16.296875 L 5.390625 -15.671875 L 0.59375 -15.328125 C 0.550781 -15.492188 0.515625 -15.789062 0.484375 -16.21875 C 0.359375 -18.039062 0.921875 -19.546875 2.171875 -20.734375 C 3.421875 -21.929688 5.160156 -22.609375 7.390625 -22.765625 C 9.847656 -22.929688 11.722656 -22.507812 13.015625 -21.5 C 14.316406 -20.488281 15.039062 -18.957031 15.1875 -16.90625 L 15.921875 -6.234375 C 15.960938 -5.742188 16.097656 -5.390625 16.328125 -5.171875 C 16.566406 -4.953125 16.851562 -4.851562 17.1875 -4.875 L 18.171875 -4.9375 L 18.40625 -1.453125 C 17.613281 -0.953125 16.660156 -0.660156 15.546875 -0.578125 C 14.585938 -0.515625 13.75 -0.710938 13.03125 -1.171875 C 12.320312 -1.640625 11.816406 -2.300781 11.515625 -3.15625 L 11.3125 -3.140625 C 10.6875 -2.140625 9.988281 -1.375 9.21875 -0.84375 C 8.445312 -0.320312 7.382812 -0.015625 6.03125 0.078125 Z M 7.8125 -4.171875 C 8.90625 -4.242188 9.6875 -4.738281 10.15625 -5.65625 C 10.632812 -6.570312 10.828125 -7.734375 10.734375 -9.140625 L 10.640625 -10.375 C 8.972656 -10.257812 7.628906 -9.894531 6.609375 -9.28125 C 5.585938 -8.675781 5.125 -7.726562 5.21875 -6.4375 C 5.269531 -5.664062 5.507812 -5.078125 5.9375 -4.671875 C 6.363281 -4.273438 6.988281 -4.109375 7.8125 -4.171875 Z M 7.8125 -4.171875 "/></g></g></g><g fill="#ffde00" fill-opacity="1"><g transform="translate(113.220129, 196.219475)"><g><path d="M 0.75 -21.796875 L 4.859375 -22.078125 L 5.546875 -19.453125 L 5.796875 -19.46875 C 6.359375 -20.4375 7.066406 -21.25 7.921875 -21.90625 C 8.785156 -22.5625 9.828125 -22.929688 11.046875 -23.015625 C 12.828125 -23.140625 14.269531 -22.679688 15.375 -21.640625 C 16.476562 -20.597656 17.113281 -18.875 17.28125 -16.46875 L 18.34375 -1.28125 L 13.40625 -0.9375 L 12.4375 -14.765625 C 12.34375 -16.109375 12.035156 -17.0625 11.515625 -17.625 C 10.992188 -18.1875 10.265625 -18.4375 9.328125 -18.375 C 8.378906 -18.3125 7.609375 -17.835938 7.015625 -16.953125 C 6.429688 -16.078125 6.1875 -15.035156 6.28125 -13.828125 L 7.203125 -0.5 L 2.265625 -0.15625 Z M 0.75 -21.796875 "/></g></g></g><g fill="#ffde00" fill-opacity="1"><g transform="translate(133.825626, 194.78306)"><g><path d="M 0.609375 -2.15625 L 7.921875 -18.125 L 0.015625 -17.5625 L -0.28125 -21.71875 L 14.328125 -22.75 L 14.484375 -20.6875 L 7.109375 -4.671875 L 15.8125 -5.28125 L 16.109375 -1.125 L 0.75 -0.046875 Z M 0.609375 -2.15625 "/></g></g></g><g fill="#ffde00" fill-opacity="1"><g transform="translate(150.68841, 193.607551)"><g><path d="M 6.03125 0.078125 C 4.6875 0.171875 3.414062 -0.203125 2.21875 -1.046875 C 1.019531 -1.890625 0.34375 -3.421875 0.1875 -5.640625 C 0 -8.378906 0.796875 -10.390625 2.578125 -11.671875 C 4.359375 -12.953125 6.960938 -13.707031 10.390625 -13.9375 L 10.234375 -16.21875 C 10.179688 -17.050781 9.976562 -17.691406 9.625 -18.140625 C 9.269531 -18.585938 8.660156 -18.78125 7.796875 -18.71875 C 6.878906 -18.65625 6.226562 -18.382812 5.84375 -17.90625 C 5.46875 -17.425781 5.300781 -16.890625 5.34375 -16.296875 L 5.390625 -15.671875 L 0.59375 -15.328125 C 0.550781 -15.492188 0.515625 -15.789062 0.484375 -16.21875 C 0.359375 -18.039062 0.921875 -19.546875 2.171875 -20.734375 C 3.421875 -21.929688 5.160156 -22.609375 7.390625 -22.765625 C 9.847656 -22.929688 11.722656 -22.507812 13.015625 -21.5 C 14.316406 -20.488281 15.039062 -18.957031 15.1875 -16.90625 L 15.921875 -6.234375 C 15.960938 -5.742188 16.097656 -5.390625 16.328125 -5.171875 C 16.566406 -4.953125 16.851562 -4.851562 17.1875 -4.875 L 18.171875 -4.9375 L 18.40625 -1.453125 C 17.613281 -0.953125 16.660156 -0.660156 15.546875 -0.578125 C 14.585938 -0.515625 13.75 -0.710938 13.03125 -1.171875 C 12.320312 -1.640625 11.816406 -2.300781 11.515625 -3.15625 L 11.3125 -3.140625 C 10.6875 -2.140625 9.988281 -1.375 9.21875 -0.84375 C 8.445312 -0.320312 7.382812 -0.015625 6.03125 0.078125 Z M 7.8125 -4.171875 C 8.90625 -4.242188 9.6875 -4.738281 10.15625 -5.65625 C 10.632812 -6.570312 10.828125 -7.734375 10.734375 -9.140625 L 10.640625 -10.375 C 8.972656 -10.257812 7.628906 -9.894531 6.609375 -9.28125 C 5.585938 -8.675781 5.125 -7.726562 5.21875 -6.4375 C 5.269531 -5.664062 5.507812 -5.078125 5.9375 -4.671875 C 6.363281 -4.273438 6.988281 -4.109375 7.8125 -4.171875 Z M 7.8125 -4.171875 "/></g></g></g><path stroke-linecap="butt" transform="matrix(0.839227, 0, 0, 0.839227, 178.65121, 137.991406)" fill="none" stroke-linejoin="miter" d="M 16.781112 35.478139 L 26.243873 35.478139 L 40.263467 78.998461 L 31.945733 78.998461 L 29.283313 70.434034 L 13.234322 70.434034 L 10.632412 78.998461 L 2.766172 78.998461 Z M 27.067733 63.200817 L 22.683119 48.673873 C 22.385226 47.742957 22.105951 46.625858 21.845295 45.313266 C 21.598602 44.000675 21.45431 43.153541 21.412419 42.771865 L 21.165726 42.771865 C 21.081944 43.195432 20.914379 44.075148 20.653722 45.406358 C 20.39772 46.737568 20.141719 47.826739 19.895026 48.673873 L 15.449902 63.200817 Z M 46.598351 33.136885 L 54.217898 33.136885 L 54.217898 78.998461 L 46.598351 78.998461 Z M 60.743619 45.639087 L 68.735532 45.639087 L 73.054983 59.965884 C 73.394767 61.027128 73.799715 62.767941 74.265173 65.183668 C 74.725977 67.590085 75.02387 69.191261 75.144889 69.987194 L 75.4102 69.987194 C 75.531219 69.233152 75.787221 67.683177 76.168896 65.337269 C 76.550572 62.986706 76.927593 61.194693 77.299959 59.965884 L 81.5589 45.639087 L 89.164483 45.639087 L 78.831316 78.998461 L 71.086095 78.998461 Z M 101.536357 79.757157 C 99.465069 79.757157 97.547382 79.049661 95.792605 77.639323 C 94.037829 76.224331 93.158113 73.799295 93.158113 70.373524 C 93.158113 66.137856 94.596378 63.135652 97.463599 61.357603 C 100.344784 59.584208 104.431505 58.695183 109.714454 58.695183 L 109.714454 55.208903 C 109.714454 53.900966 109.472415 52.886268 108.988339 52.174117 C 108.504263 51.452657 107.582656 51.0896 106.232828 51.0896 C 104.836454 51.0896 103.821756 51.443348 103.179423 52.141535 C 102.551055 52.835067 102.234544 53.644964 102.234544 54.57588 L 102.234544 55.52076 L 94.815143 55.52076 C 94.773252 55.274067 94.754634 54.808609 94.754634 54.124386 C 94.754634 51.336292 95.778641 49.09744 97.822002 47.403172 C 99.874672 45.708905 102.616219 44.861772 106.046645 44.861772 C 109.844782 44.861772 112.684076 45.708905 114.564526 47.403172 C 116.454285 49.09744 117.399165 51.52713 117.399165 54.696899 L 117.399165 71.132221 C 117.399165 71.895572 117.56673 72.458776 117.911169 72.821833 C 118.250953 73.170927 118.67452 73.347801 119.181869 73.347801 L 120.699262 73.347801 L 120.699262 78.751768 C 119.428562 79.422027 117.925133 79.757157 116.188974 79.757157 C 114.713472 79.757157 113.452081 79.370827 112.409455 78.598167 C 111.380793 77.811543 110.673297 76.745644 110.291622 75.391161 L 109.979765 75.391161 C 108.913866 76.866663 107.75953 77.965144 106.512103 78.691258 C 105.26933 79.403409 103.612299 79.757157 101.536357 79.757157 Z M 104.715435 73.422274 C 106.405047 73.422274 107.661784 72.74736 108.476335 71.397532 C 109.304851 70.03374 109.714454 68.278963 109.714454 66.128547 L 109.714454 64.224824 C 107.145126 64.224824 105.04591 64.639082 103.412152 65.462942 C 101.78305 66.277494 100.963843 67.683177 100.963843 69.675337 C 100.963843 70.862255 101.271046 71.788516 101.880796 72.449467 C 102.499855 73.101108 103.444735 73.422274 104.715435 73.422274 Z M 127.546149 45.639087 L 133.894996 45.639087 L 134.653693 49.75839 L 135.040023 49.75839 C 136.01283 48.310816 137.195093 47.133207 138.586813 46.225564 C 139.983187 45.317921 141.607635 44.861772 143.464812 44.861772 C 146.224978 44.861772 148.389358 45.722869 149.971915 47.435755 C 151.559127 49.14864 152.35506 51.871569 152.35506 55.595233 L 152.35506 78.998461 L 144.735513 78.998461 L 144.735513 57.689794 C 144.735513 55.613851 144.363146 54.110422 143.618413 53.179506 C 142.887644 52.253245 141.803127 51.787787 140.369517 51.787787 C 138.880051 51.787787 137.641933 52.430119 136.650507 53.724092 C 135.659082 55.013411 135.165696 56.586659 135.165696 58.448491 L 135.165696 78.998461 L 127.546149 78.998461 Z M 159.844279 75.763528 L 172.774702 52.034479 L 160.602975 52.034479 L 160.602975 45.639087 L 183.121833 45.639087 L 183.121833 48.799546 L 170.112282 72.589104 L 183.568672 72.589104 L 183.568672 78.998461 L 159.844279 78.998461 Z M 196.820261 79.757157 C 194.748973 79.757157 192.831286 79.049661 191.07651 77.639323 C 189.321733 76.224331 188.442018 73.799295 188.442018 70.373524 C 188.442018 66.137856 189.880283 63.135652 192.747504 61.357603 C 195.628689 59.584208 199.71541 58.695183 204.998358 58.695183 L 204.998358 55.208903 C 204.998358 53.900966 204.75632 52.886268 204.272244 52.174117 C 203.788167 51.452657 202.866561 51.0896 201.516732 51.0896 C 200.120358 51.0896 199.10566 51.443348 198.463328 52.141535 C 197.83496 52.835067 197.518448 53.644964 197.518448 54.57588 L 197.518448 55.52076 L 190.099048 55.52076 C 190.057157 55.274067 190.038538 54.808609 190.038538 54.124386 C 190.038538 51.336292 191.062546 49.09744 193.105907 47.403172 C 195.158576 45.708905 197.900124 44.861772 201.330549 44.861772 C 205.128686 44.861772 207.96798 45.708905 209.84843 47.403172 C 211.73819 49.09744 212.68307 51.52713 212.68307 54.696899 L 212.68307 71.132221 C 212.68307 71.895572 212.850634 72.458776 213.195073 72.821833 C 213.534858 73.170927 213.958424 73.347801 214.465774 73.347801 L 215.983167 73.347801 L 215.983167 78.751768 C 214.712466 79.422027 213.209037 79.757157 211.472879 79.757157 C 209.997377 79.757157 208.735986 79.370827 207.69336 78.598167 C 206.664698 77.811543 205.957202 76.745644 205.575526 75.391161 L 205.263669 75.391161 C 204.19777 76.866663 203.043435 77.965144 201.796007 78.691258 C 200.553234 79.403409 198.896204 79.757157 196.820261 79.757157 Z M 199.999339 73.422274 C 201.688952 73.422274 202.945688 72.74736 203.76024 71.397532 C 204.588755 70.03374 204.998358 68.278963 204.998358 66.128547 L 204.998358 64.224824 C 202.42903 64.224824 200.329815 64.639082 198.696057 65.462942 C 197.066954 66.277494 196.247748 67.683177 196.247748 69.675337 C 196.247748 70.862255 196.55495 71.788516 197.1647 72.449467 C 197.783759 73.101108 198.728639 73.422274 199.999339 73.422274 Z M 199.999339 73.422274 " stroke="#000000" stroke-width="4.758195" stroke-opacity="1" stroke-miterlimit="4"/><g fill="#ffde00" fill-opacity="1"><g transform="translate(180.972197, 204.290354)"><g><path d="M 11.765625 -36.515625 L 19.703125 -36.515625 L 31.46875 0 L 24.484375 0 L 22.25 -7.1875 L 8.78125 -7.1875 L 6.59375 0 L 0 0 Z M 20.390625 -13.25 L 16.71875 -25.453125 C 16.46875 -26.222656 16.234375 -27.160156 16.015625 -28.265625 C 15.804688 -29.367188 15.6875 -30.078125 15.65625 -30.390625 L 15.4375 -30.390625 C 15.363281 -30.035156 15.21875 -29.300781 15 -28.1875 C 14.789062 -27.070312 14.582031 -26.160156 14.375 -25.453125 L 10.640625 -13.25 Z M 20.390625 -13.25 "/></g></g></g><g fill="#ffde00" fill-opacity="1"><g transform="translate(214.885278, 204.290354)"><g><path d="M 2.875 -38.484375 L 9.265625 -38.484375 L 9.265625 0 L 2.875 0 Z M 2.875 -38.484375 "/></g></g></g><g fill="#ffde00" fill-opacity="1"><g transform="translate(229.41957, 204.290354)"><g><path d="M 0.21875 -28 L 6.921875 -28 L 10.546875 -15.96875 C 10.828125 -15.082031 11.160156 -13.628906 11.546875 -11.609375 C 11.941406 -9.585938 12.191406 -8.238281 12.296875 -7.5625 L 12.515625 -7.5625 C 12.617188 -8.195312 12.828125 -9.5 13.140625 -11.46875 C 13.460938 -13.4375 13.785156 -14.9375 14.109375 -15.96875 L 17.671875 -28 L 24.0625 -28 L 15.390625 0 L 8.890625 0 Z M 0.21875 -28 "/></g></g></g><g fill="#ffde00" fill-opacity="1"><g transform="translate(256.092232, 204.290354)"><g><path d="M 7.765625 0.640625 C 6.023438 0.640625 4.421875 0.046875 2.953125 -1.140625 C 1.484375 -2.328125 0.75 -4.359375 0.75 -7.234375 C 0.75 -10.785156 1.953125 -13.304688 4.359375 -14.796875 C 6.773438 -16.285156 10.203125 -17.03125 14.640625 -17.03125 L 14.640625 -19.96875 C 14.640625 -21.0625 14.4375 -21.910156 14.03125 -22.515625 C 13.625 -23.117188 12.851562 -23.421875 11.71875 -23.421875 C 10.539062 -23.421875 9.6875 -23.128906 9.15625 -22.546875 C 8.625 -21.960938 8.359375 -21.28125 8.359375 -20.5 L 8.359375 -19.703125 L 2.125 -19.703125 C 2.09375 -19.910156 2.078125 -20.300781 2.078125 -20.875 C 2.078125 -23.207031 2.9375 -25.082031 4.65625 -26.5 C 6.375 -27.925781 8.671875 -28.640625 11.546875 -28.640625 C 14.742188 -28.640625 17.128906 -27.925781 18.703125 -26.5 C 20.285156 -25.082031 21.078125 -23.046875 21.078125 -20.390625 L 21.078125 -6.59375 C 21.078125 -5.957031 21.21875 -5.488281 21.5 -5.1875 C 21.789062 -4.882812 22.148438 -4.734375 22.578125 -4.734375 L 23.84375 -4.734375 L 23.84375 -0.21875 C 22.78125 0.351562 21.519531 0.640625 20.0625 0.640625 C 18.820312 0.640625 17.765625 0.3125 16.890625 -0.34375 C 16.023438 -1 15.4375 -1.894531 15.125 -3.03125 L 14.859375 -3.03125 C 13.960938 -1.789062 12.988281 -0.867188 11.9375 -0.265625 C 10.894531 0.335938 9.503906 0.640625 7.765625 0.640625 Z M 10.4375 -4.6875 C 11.851562 -4.6875 12.90625 -5.253906 13.59375 -6.390625 C 14.289062 -7.523438 14.640625 -9 14.640625 -10.8125 L 14.640625 -12.40625 C 12.472656 -12.40625 10.707031 -12.054688 9.34375 -11.359375 C 7.976562 -10.671875 7.296875 -9.492188 7.296875 -7.828125 C 7.296875 -6.828125 7.550781 -6.050781 8.0625 -5.5 C 8.582031 -4.957031 9.375 -4.6875 10.4375 -4.6875 Z M 10.4375 -4.6875 "/></g></g></g><g fill="#ffde00" fill-opacity="1"><g transform="translate(282.764895, 204.290354)"><g><path d="M 2.921875 -28 L 8.25 -28 L 8.890625 -24.546875 L 9.203125 -24.546875 C 10.023438 -25.742188 11.019531 -26.722656 12.1875 -27.484375 C 13.363281 -28.253906 14.734375 -28.640625 16.296875 -28.640625 C 18.597656 -28.640625 20.414062 -27.921875 21.75 -26.484375 C 23.082031 -25.046875 23.75 -22.765625 23.75 -19.640625 L 23.75 0 L 17.359375 0 L 17.359375 -17.890625 C 17.359375 -19.628906 17.046875 -20.890625 16.421875 -21.671875 C 15.796875 -22.453125 14.882812 -22.84375 13.6875 -22.84375 C 12.4375 -22.84375 11.394531 -22.300781 10.5625 -21.21875 C 9.726562 -20.132812 9.3125 -18.8125 9.3125 -17.25 L 9.3125 0 L 2.921875 0 Z M 2.921875 -28 "/></g></g></g><g fill="#ffde00" fill-opacity="1"><g transform="translate(311.833272, 204.290354)"><g><path d="M 0.953125 -2.71875 L 11.8125 -22.625 L 1.59375 -22.625 L 1.59375 -28 L 20.5 -28 L 20.5 -25.34375 L 9.578125 -5.375 L 20.875 -5.375 L 20.875 0 L 0.953125 0 Z M 0.953125 -2.71875 "/></g></g></g><g fill="#ffde00" fill-opacity="1"><g transform="translate(336.056955, 204.290354)"><g><path d="M 7.765625 0.640625 C 6.023438 0.640625 4.421875 0.046875 2.953125 -1.140625 C 1.484375 -2.328125 0.75 -4.359375 0.75 -7.234375 C 0.75 -10.785156 1.953125 -13.304688 4.359375 -14.796875 C 6.773438 -16.285156 10.203125 -17.03125 14.640625 -17.03125 L 14.640625 -19.96875 C 14.640625 -21.0625 14.4375 -21.910156 14.03125 -22.515625 C 13.625 -23.117188 12.851562 -23.421875 11.71875 -23.421875 C 10.539062 -23.421875 9.6875 -23.128906 9.15625 -22.546875 C 8.625 -21.960938 8.359375 -21.28125 8.359375 -20.5 L 8.359375 -19.703125 L 2.125 -19.703125 C 2.09375 -19.910156 2.078125 -20.300781 2.078125 -20.875 C 2.078125 -23.207031 2.9375 -25.082031 4.65625 -26.5 C 6.375 -27.925781 8.671875 -28.640625 11.546875 -28.640625 C 14.742188 -28.640625 17.128906 -27.925781 18.703125 -26.5 C 20.285156 -25.082031 21.078125 -23.046875 21.078125 -20.390625 L 21.078125 -6.59375 C 21.078125 -5.957031 21.21875 -5.488281 21.5 -5.1875 C 21.789062 -4.882812 22.148438 -4.734375 22.578125 -4.734375 L 23.84375 -4.734375 L 23.84375 -0.21875 C 22.78125 0.351562 21.519531 0.640625 20.0625 0.640625 C 18.820312 0.640625 17.765625 0.3125 16.890625 -0.34375 C 16.023438 -1 15.4375 -1.894531 15.125 -3.03125 L 14.859375 -3.03125 C 13.960938 -1.789062 12.988281 -0.867188 11.9375 -0.265625 C 10.894531 0.335938 9.503906 0.640625 7.765625 0.640625 Z M 10.4375 -4.6875 C 11.851562 -4.6875 12.90625 -5.253906 13.59375 -6.390625 C 14.289062 -7.523438 14.640625 -9 14.640625 -10.8125 L 14.640625 -12.40625 C 12.472656 -12.40625 10.707031 -12.054688 9.34375 -11.359375 C 7.976562 -10.671875 7.296875 -9.492188 7.296875 -7.828125 C 7.296875 -6.828125 7.550781 -6.050781 8.0625 -5.5 C 8.582031 -4.957031 9.375 -4.6875 10.4375 -4.6875 Z M 10.4375 -4.6875 "/></g></g></g></svg>