<svg xmlns="http://www.w3.org/2000/svg" xmlns:xlink="http://www.w3.org/1999/xlink" width="500" zoomAndPan="magnify" viewBox="0 0 375 374.999991" height="500" preserveAspectRatio="xMidYMid meet" version="1.0"><defs><g/><clipPath id="47ee9479c0"><path d="M 5.402344 74.640625 L 372.226562 74.640625 L 372.226562 323.332031 L 5.402344 323.332031 Z M 5.402344 74.640625 " clip-rule="nonzero"/></clipPath><clipPath id="636a517085"><path d="M 188.816406 74.640625 C 87.519531 74.640625 5.402344 130.3125 5.402344 198.984375 C 5.402344 267.660156 87.519531 323.332031 188.816406 323.332031 C 290.109375 323.332031 372.226562 267.660156 372.226562 198.984375 C 372.226562 130.3125 290.109375 74.640625 188.816406 74.640625 " clip-rule="nonzero"/></clipPath><clipPath id="3125a5e118"><path d="M 8.65625 79.40625 L 368.972656 79.40625 L 368.972656 313.152344 L 8.65625 313.152344 Z M 8.65625 79.40625 " clip-rule="nonzero"/></clipPath><clipPath id="608e5d51cd"><path d="M 188.816406 79.40625 C 89.316406 79.40625 8.65625 131.730469 8.65625 196.28125 C 8.65625 260.828125 89.316406 313.152344 188.816406 313.152344 C 288.3125 313.152344 368.972656 260.828125 368.972656 196.28125 C 368.972656 131.730469 288.3125 79.40625 188.816406 79.40625 " clip-rule="nonzero"/></clipPath><clipPath id="bae9403690"><path d="M 101.738281 108 L 280.988281 108 L 280.988281 118 L 101.738281 118 Z M 101.738281 108 " clip-rule="nonzero"/></clipPath><clipPath id="4ff3090fa3"><path d="M 32.410156 40.003906 L 349.921875 40.003906 L 349.921875 343.152344 L 32.410156 343.152344 Z M 32.410156 40.003906 " clip-rule="nonzero"/></clipPath><clipPath id="890c92399c"><path d="M 191.164062 40.003906 C 103.488281 40.003906 32.410156 107.867188 32.410156 191.578125 C 32.410156 275.289062 103.488281 343.152344 191.164062 343.152344 C 278.84375 343.152344 349.921875 275.289062 349.921875 191.578125 C 349.921875 107.867188 278.84375 40.003906 191.164062 40.003906 " clip-rule="nonzero"/></clipPath><clipPath id="9c0240fd10"><path d="M 36.378906 42.605469 L 345.640625 42.605469 L 345.640625 331.816406 L 36.378906 331.816406 Z M 36.378906 42.605469 " clip-rule="nonzero"/></clipPath><clipPath id="cca174041c"><path d="M 191.007812 42.605469 C 105.609375 42.605469 36.378906 107.347656 36.378906 187.210938 C 36.378906 267.074219 105.609375 331.816406 191.007812 331.816406 C 276.410156 331.816406 345.640625 267.074219 345.640625 187.210938 C 345.640625 107.347656 276.410156 42.605469 191.007812 42.605469 " clip-rule="nonzero"/></clipPath><clipPath id="ee6c535f91"><path d="M 103.382812 110 L 278.882812 110 L 278.882812 119.914062 L 103.382812 119.914062 Z M 103.382812 110 " clip-rule="nonzero"/></clipPath><clipPath id="1ec5fad091"><path d="M 103.382812 114 L 278.882812 114 L 278.882812 123.957031 L 103.382812 123.957031 Z M 103.382812 114 " clip-rule="nonzero"/></clipPath></defs><g clip-path="url(#47ee9479c0)"><g clip-path="url(#636a517085)"><path fill="#ffffff" d="M 5.402344 74.640625 L 372.226562 74.640625 L 372.226562 323.332031 L 5.402344 323.332031 Z M 5.402344 74.640625 " fill-opacity="1" fill-rule="nonzero"/></g></g><g clip-path="url(#3125a5e118)"><g clip-path="url(#608e5d51cd)"><path fill="#ffffff" d="M 8.65625 79.40625 L 368.972656 79.40625 L 368.972656 313.152344 L 8.65625 313.152344 Z M 8.65625 79.40625 " fill-opacity="1" fill-rule="nonzero"/></g></g><path fill="#ffffff" d="M 271.859375 101.679688 C 271.074219 83.089844 263.488281 65.757812 250.304688 52.574219 C 236.582031 38.796875 218.335938 31.113281 198.921875 30.933594 C 198.753906 30.917969 198.667969 30.917969 198.570312 30.914062 C 198.417969 30.898438 198.28125 30.898438 198.117188 30.898438 L 184.605469 30.898438 C 184.425781 30.898438 184.285156 30.898438 184.125 30.914062 C 144.628906 31.320312 112.550781 62.761719 110.867188 101.675781 L 271.859375 101.675781 Z M 168.699219 37.441406 C 171.324219 36.847656 174.054688 36.410156 176.808594 36.144531 C 178.558594 35.992188 180.132812 37.265625 180.300781 39.027344 C 180.472656 40.792969 179.179688 42.359375 177.421875 42.53125 C 174.9375 42.769531 172.476562 43.160156 170.113281 43.699219 C 169.875 43.753906 169.640625 43.773438 169.402344 43.773438 C 167.941406 43.773438 166.621094 42.765625 166.28125 41.273438 C 165.894531 39.542969 166.976562 37.828125 168.699219 37.4375 Z M 155.179688 42.21875 C 156.773438 41.4375 158.6875 42.085938 159.464844 43.679688 C 160.25 45.265625 159.597656 47.191406 158.011719 47.972656 C 134.117188 59.78125 126.054688 86.226562 125.976562 86.492188 C 125.5625 87.890625 124.289062 88.789062 122.90625 88.789062 C 122.605469 88.789062 122.304688 88.75 122 88.660156 C 120.308594 88.160156 119.335938 86.378906 119.835938 84.679688 C 120.183594 83.484375 128.714844 55.300781 155.179688 42.21875 Z M 155.179688 42.21875 " fill-opacity="1" fill-rule="nonzero"/><path fill="#ffffff" d="M 186.976562 17.398438 L 186.976562 24.488281 L 195.75 24.488281 L 195.75 17.398438 C 195.75 16.25 195.273438 15.101562 194.449219 14.253906 C 193.660156 13.457031 192.550781 13.007812 191.363281 13.007812 C 188.945312 13.007812 186.976562 14.980469 186.976562 17.398438 Z M 186.976562 17.398438 " fill-opacity="1" fill-rule="nonzero"/><g clip-path="url(#bae9403690)"><path fill="#ffffff" d="M 277.84375 108.09375 L 275.183594 108.09375 C 275.167969 108.09375 275.148438 108.101562 275.132812 108.101562 L 107.597656 108.101562 C 107.578125 108.101562 107.5625 108.09375 107.542969 108.09375 L 104.886719 108.09375 C 103.148438 108.09375 101.738281 109.507812 101.738281 111.25 L 101.738281 114.347656 C 101.738281 116.085938 103.148438 117.503906 104.886719 117.503906 L 277.84375 117.503906 C 279.578125 117.503906 280.988281 116.089844 280.988281 114.347656 L 280.988281 111.25 C 280.988281 109.511719 279.578125 108.09375 277.84375 108.09375 Z M 277.84375 108.09375 " fill-opacity="1" fill-rule="nonzero"/></g><g fill="#ffffff" fill-opacity="1"><g transform="translate(135.296518, 249.490357)"><g><path d="M 0.875 -15.609375 L 13.421875 -16.25 L 13.609375 -12.515625 L 6.046875 -12.140625 L 6.1875 -9.484375 L 12.6875 -9.8125 L 12.875 -6.25 L 6.375 -5.921875 L 6.65625 -0.34375 L 1.671875 -0.078125 Z M 0.875 -15.609375 "/></g></g></g><g fill="#ffffff" fill-opacity="1"><g transform="translate(150.343316, 248.721559)"><g><path d="M 8.578125 -16.28125 C 11.253906 -16.414062 13.359375 -15.832031 14.890625 -14.53125 C 16.421875 -13.238281 17.253906 -11.28125 17.390625 -8.65625 C 17.515625 -6.050781 16.882812 -4.023438 15.5 -2.578125 C 14.113281 -1.140625 12.082031 -0.351562 9.40625 -0.21875 C 6.726562 -0.0820312 4.628906 -0.65625 3.109375 -1.9375 C 1.585938 -3.21875 0.757812 -5.171875 0.625 -7.796875 C 0.488281 -10.429688 1.109375 -12.46875 2.484375 -13.90625 C 3.867188 -15.351562 5.898438 -16.144531 8.578125 -16.28125 Z M 8.78125 -12.5625 C 7.707031 -12.5 6.90625 -12.128906 6.375 -11.453125 C 5.851562 -10.773438 5.617188 -9.890625 5.671875 -8.796875 L 5.75 -7.34375 C 5.800781 -6.257812 6.125 -5.40625 6.71875 -4.78125 C 7.3125 -4.15625 8.144531 -3.875 9.21875 -3.9375 C 10.28125 -3.988281 11.078125 -4.351562 11.609375 -5.03125 C 12.140625 -5.707031 12.378906 -6.585938 12.328125 -7.671875 L 12.25 -9.125 C 12.195312 -10.21875 11.867188 -11.078125 11.265625 -11.703125 C 10.671875 -12.328125 9.84375 -12.613281 8.78125 -12.5625 Z M 8.78125 -12.5625 "/></g></g></g><g fill="#ffffff" fill-opacity="1"><g transform="translate(169.134888, 247.761426)"><g><path d="M 8.578125 -16.28125 C 11.253906 -16.414062 13.359375 -15.832031 14.890625 -14.53125 C 16.421875 -13.238281 17.253906 -11.28125 17.390625 -8.65625 C 17.515625 -6.050781 16.882812 -4.023438 15.5 -2.578125 C 14.113281 -1.140625 12.082031 -0.351562 9.40625 -0.21875 C 6.726562 -0.0820312 4.628906 -0.65625 3.109375 -1.9375 C 1.585938 -3.21875 0.757812 -5.171875 0.625 -7.796875 C 0.488281 -10.429688 1.109375 -12.46875 2.484375 -13.90625 C 3.867188 -15.351562 5.898438 -16.144531 8.578125 -16.28125 Z M 8.78125 -12.5625 C 7.707031 -12.5 6.90625 -12.128906 6.375 -11.453125 C 5.851562 -10.773438 5.617188 -9.890625 5.671875 -8.796875 L 5.75 -7.34375 C 5.800781 -6.257812 6.125 -5.40625 6.71875 -4.78125 C 7.3125 -4.15625 8.144531 -3.875 9.21875 -3.9375 C 10.28125 -3.988281 11.078125 -4.351562 11.609375 -5.03125 C 12.140625 -5.707031 12.378906 -6.585938 12.328125 -7.671875 L 12.25 -9.125 C 12.195312 -10.21875 11.867188 -11.078125 11.265625 -11.703125 C 10.671875 -12.328125 9.84375 -12.613281 8.78125 -12.5625 Z M 8.78125 -12.5625 "/></g></g></g><g fill="#ffffff" fill-opacity="1"><g transform="translate(187.926459, 246.801293)"><g><path d="M 7.59375 -15.953125 C 13.03125 -16.234375 15.882812 -13.78125 16.15625 -8.59375 C 16.414062 -3.425781 13.828125 -0.703125 8.390625 -0.421875 L 1.671875 -0.078125 L 0.875 -15.609375 Z M 6.46875 -4.078125 L 8.109375 -4.15625 C 10.203125 -4.257812 11.191406 -5.425781 11.078125 -7.65625 L 11 -9.015625 C 10.882812 -11.253906 9.78125 -12.320312 7.6875 -12.21875 L 6.046875 -12.140625 Z M 6.46875 -4.078125 "/></g></g></g><g fill="#ffffff" fill-opacity="1"><g transform="translate(205.477295, 245.904554)"><g/></g></g><g fill="#ffffff" fill-opacity="1"><g transform="translate(212.98941, 245.520732)"><g><path d="M 8.25 -16.265625 C 10.5625 -16.378906 12.414062 -15.894531 13.8125 -14.8125 C 15.21875 -13.726562 15.972656 -12.117188 16.078125 -9.984375 L 11.3125 -9.75 C 11.269531 -10.644531 11 -11.34375 10.5 -11.84375 C 10 -12.351562 9.3125 -12.585938 8.4375 -12.546875 C 7.425781 -12.492188 6.695312 -12.132812 6.25 -11.46875 C 5.8125 -10.8125 5.617188 -9.921875 5.671875 -8.796875 L 5.75 -7.34375 C 5.800781 -6.238281 6.082031 -5.378906 6.59375 -4.765625 C 7.101562 -4.148438 7.847656 -3.863281 8.828125 -3.90625 C 9.785156 -3.957031 10.5 -4.242188 10.96875 -4.765625 C 11.445312 -5.296875 11.660156 -6.003906 11.609375 -6.890625 L 16.21875 -7.125 C 16.332031 -5.019531 15.765625 -3.367188 14.515625 -2.171875 C 13.273438 -0.972656 11.460938 -0.316406 9.078125 -0.203125 C 6.441406 -0.0664062 4.40625 -0.640625 2.96875 -1.921875 C 1.539062 -3.203125 0.757812 -5.160156 0.625 -7.796875 C 0.488281 -10.453125 1.066406 -12.492188 2.359375 -13.921875 C 3.648438 -15.347656 5.613281 -16.128906 8.25 -16.265625 Z M 8.25 -16.265625 "/></g></g></g><g fill="#ffffff" fill-opacity="1"><g transform="translate(230.540246, 244.623993)"><g><path d="M 8.578125 -16.28125 C 11.253906 -16.414062 13.359375 -15.832031 14.890625 -14.53125 C 16.421875 -13.238281 17.253906 -11.28125 17.390625 -8.65625 C 17.515625 -6.050781 16.882812 -4.023438 15.5 -2.578125 C 14.113281 -1.140625 12.082031 -0.351562 9.40625 -0.21875 C 6.726562 -0.0820312 4.628906 -0.65625 3.109375 -1.9375 C 1.585938 -3.21875 0.757812 -5.171875 0.625 -7.796875 C 0.488281 -10.429688 1.109375 -12.46875 2.484375 -13.90625 C 3.867188 -15.351562 5.898438 -16.144531 8.578125 -16.28125 Z M 8.78125 -12.5625 C 7.707031 -12.5 6.90625 -12.128906 6.375 -11.453125 C 5.851562 -10.773438 5.617188 -9.890625 5.671875 -8.796875 L 5.75 -7.34375 C 5.800781 -6.257812 6.125 -5.40625 6.71875 -4.78125 C 7.3125 -4.15625 8.144531 -3.875 9.21875 -3.9375 C 10.28125 -3.988281 11.078125 -4.351562 11.609375 -5.03125 C 12.140625 -5.707031 12.378906 -6.585938 12.328125 -7.671875 L 12.25 -9.125 C 12.195312 -10.21875 11.867188 -11.078125 11.265625 -11.703125 C 10.671875 -12.328125 9.84375 -12.613281 8.78125 -12.5625 Z M 8.78125 -12.5625 "/></g></g></g><g fill="#ffffff" fill-opacity="1"><g transform="translate(249.331818, 243.66386)"><g><path d="M 16.828125 -7.125 C 16.929688 -5.007812 16.335938 -3.359375 15.046875 -2.171875 C 13.765625 -0.992188 11.890625 -0.34375 9.421875 -0.21875 C 6.960938 -0.09375 5.03125 -0.550781 3.625 -1.59375 C 2.21875 -2.632812 1.460938 -4.210938 1.359375 -6.328125 L 0.875 -15.609375 L 5.859375 -15.875 L 6.328125 -6.65625 C 6.378906 -5.789062 6.648438 -5.109375 7.140625 -4.609375 C 7.628906 -4.109375 8.320312 -3.882812 9.21875 -3.9375 C 10.101562 -3.976562 10.769531 -4.273438 11.21875 -4.828125 C 11.664062 -5.378906 11.863281 -6.082031 11.8125 -6.9375 L 11.34375 -16.15625 L 16.34375 -16.40625 Z M 16.828125 -7.125 "/></g></g></g><g fill="#ffffff" fill-opacity="1"><g transform="translate(268.123389, 242.703727)"><g><path d="M 15.859375 -11.609375 C 15.898438 -10.660156 15.6875 -9.785156 15.21875 -8.984375 C 14.75 -8.191406 14.035156 -7.585938 13.078125 -7.171875 L 16.859375 -0.859375 L 11.265625 -0.578125 L 8.203125 -6.109375 L 6.359375 -6.015625 L 6.65625 -0.34375 L 1.671875 -0.078125 L 0.875 -15.609375 L 10.375 -16.109375 C 11.488281 -16.160156 12.453125 -15.988281 13.265625 -15.59375 C 14.078125 -15.207031 14.703125 -14.660156 15.140625 -13.953125 C 15.578125 -13.242188 15.816406 -12.460938 15.859375 -11.609375 Z M 10.78125 -11.140625 C 10.757812 -11.546875 10.609375 -11.875 10.328125 -12.125 C 10.046875 -12.382812 9.707031 -12.503906 9.3125 -12.484375 L 6.046875 -12.328125 L 6.1875 -9.453125 L 9.453125 -9.609375 C 9.847656 -9.628906 10.171875 -9.785156 10.421875 -10.078125 C 10.679688 -10.378906 10.800781 -10.734375 10.78125 -11.140625 Z M 10.78125 -11.140625 "/></g></g></g><g fill="#ffffff" fill-opacity="1"><g transform="translate(285.674226, 241.806988)"><g><path d="M 10.015625 -12.09375 L 10.609375 -0.546875 L 5.625 -0.28125 L 5.03125 -11.828125 L -0.078125 -11.578125 L -0.28125 -15.5625 L 14.890625 -16.328125 L 15.09375 -12.34375 Z M 10.015625 -12.09375 "/></g></g></g><g fill="#000000" fill-opacity="1"><g transform="translate(33.575274, 238.851335)"><g><path d="M 33.359375 -25.859375 L 10.34375 -21.84375 L 7.421875 -1.296875 L 0.375 -0.0625 L 10.765625 -65.5 L 18.46875 -66.84375 L 50.28125 -8.765625 L 42.953125 -7.5 Z M 30.609375 -31.09375 L 25.671875 -40.515625 C 21.796875 -47.910156 18.445312 -54.523438 15.625 -60.359375 L 15.25 -60.296875 C 14.507812 -52.359375 13.628906 -45.003906 12.609375 -38.234375 L 11.15625 -27.703125 Z M 30.609375 -31.09375 "/></g></g></g><g fill="#000000" fill-opacity="1"><g transform="translate(84.23703, 230.014294)"><g><path d="M 15.625 -1.5625 C 13.050781 -1.113281 11.023438 -1.582031 9.546875 -2.96875 C 8.078125 -4.351562 7.070312 -6.617188 6.53125 -9.765625 L -3.71875 -68.5 L 3.0625 -69.6875 L 13.40625 -10.375 C 13.59375 -9.3125 13.9375 -8.546875 14.4375 -8.078125 C 14.9375 -7.617188 15.5 -7.445312 16.125 -7.5625 C 16.625 -7.644531 17.175781 -7.800781 17.78125 -8.03125 L 19.625 -2.921875 C 18.519531 -2.285156 17.1875 -1.832031 15.625 -1.5625 Z M 15.625 -1.5625 "/></g></g></g><g fill="#000000" fill-opacity="1"><g transform="translate(107.735065, 225.915481)"><g><path d="M -6.828125 -45.796875 L 0.21875 -47.015625 L 13.890625 -22 L 20.546875 -9.390625 L 20.921875 -9.46875 L 22.921875 -23.578125 L 27.296875 -51.734375 L 34.0625 -52.921875 L 25.65625 -4.46875 L 17.765625 -3.09375 Z M -6.828125 -45.796875 "/></g></g></g><g fill="#000000" fill-opacity="1"><g transform="translate(150.87745, 218.390061)"><g><path d="M 18.53125 -2.078125 C 14.644531 -1.398438 11.25 -1.96875 8.34375 -3.78125 C 5.445312 -5.601562 3.644531 -8.550781 2.9375 -12.625 C 2.070312 -17.570312 3.660156 -21.769531 7.703125 -25.21875 C 11.753906 -28.675781 18.640625 -31.800781 28.359375 -34.59375 C 27.734375 -38.164062 26.484375 -40.960938 24.609375 -42.984375 C 22.734375 -45.015625 20.007812 -45.71875 16.4375 -45.09375 C 12.101562 -44.34375 7.789062 -41.878906 3.5 -37.703125 L -0.046875 -41.9375 C 5.253906 -46.988281 10.789062 -50.019531 16.5625 -51.03125 C 21.820312 -51.945312 25.992188 -50.976562 29.078125 -48.125 C 32.171875 -45.269531 34.21875 -40.960938 35.21875 -35.203125 L 40.140625 -7 L 34.5 -6.015625 L 32.96875 -11.46875 L 32.671875 -11.421875 C 28.066406 -6.023438 23.351562 -2.910156 18.53125 -2.078125 Z M 19.359375 -7.9375 C 21.546875 -8.3125 23.597656 -9.203125 25.515625 -10.609375 C 27.429688 -12.015625 29.421875 -14.023438 31.484375 -16.640625 L 29.15625 -29.984375 C 21.488281 -27.671875 16.175781 -25.253906 13.21875 -22.734375 C 10.269531 -20.222656 9.078125 -17.367188 9.640625 -14.171875 C 10.085938 -11.597656 11.207031 -9.804688 13 -8.796875 C 14.789062 -7.796875 16.910156 -7.507812 19.359375 -7.9375 Z M 19.359375 -7.9375 "/></g></g></g><g fill="#000000" fill-opacity="1"><g transform="translate(197.967509, 210.176039)"><g><path d="M 0.03125 -46.984375 L 5.6875 -47.96875 L 7.421875 -41.28125 L 7.703125 -41.34375 C 9.773438 -44.289062 11.894531 -46.660156 14.0625 -48.453125 C 16.226562 -50.253906 18.753906 -51.410156 21.640625 -51.921875 C 26.398438 -52.742188 30.171875 -51.863281 32.953125 -49.28125 C 35.734375 -46.695312 37.640625 -42.460938 38.671875 -36.578125 L 43.71875 -7.625 L 36.84375 -6.421875 L 31.9375 -34.53125 C 31.175781 -38.90625 29.914062 -41.972656 28.15625 -43.734375 C 26.394531 -45.503906 23.921875 -46.113281 20.734375 -45.5625 C 18.472656 -45.164062 16.472656 -44.21875 14.734375 -42.71875 C 12.992188 -41.21875 11.0625 -38.960938 8.9375 -35.953125 L 14.765625 -2.578125 L 7.984375 -1.390625 Z M 0.03125 -46.984375 "/></g></g></g><g fill="#000000" fill-opacity="1"><g transform="translate(249.005239, 201.273417)"><g><path d="M 2.171875 -4.140625 L 20.5625 -44.734375 L -1.421875 -40.90625 L -2.40625 -46.5625 L 28.234375 -51.90625 L 28.875 -48.234375 L 10.484375 -7.640625 L 36.046875 -12.09375 L 37.03125 -6.453125 L 2.8125 -0.484375 Z M 2.171875 -4.140625 "/></g></g></g><g fill="#000000" fill-opacity="1"><g transform="translate(288.387953, 194.403804)"><g><path d="M 18.53125 -2.078125 C 14.644531 -1.398438 11.25 -1.96875 8.34375 -3.78125 C 5.445312 -5.601562 3.644531 -8.550781 2.9375 -12.625 C 2.070312 -17.570312 3.660156 -21.769531 7.703125 -25.21875 C 11.753906 -28.675781 18.640625 -31.800781 28.359375 -34.59375 C 27.734375 -38.164062 26.484375 -40.960938 24.609375 -42.984375 C 22.734375 -45.015625 20.007812 -45.71875 16.4375 -45.09375 C 12.101562 -44.34375 7.789062 -41.878906 3.5 -37.703125 L -0.046875 -41.9375 C 5.253906 -46.988281 10.789062 -50.019531 16.5625 -51.03125 C 21.820312 -51.945312 25.992188 -50.976562 29.078125 -48.125 C 32.171875 -45.269531 34.21875 -40.960938 35.21875 -35.203125 L 40.140625 -7 L 34.5 -6.015625 L 32.96875 -11.46875 L 32.671875 -11.421875 C 28.066406 -6.023438 23.351562 -2.910156 18.53125 -2.078125 Z M 19.359375 -7.9375 C 21.546875 -8.3125 23.597656 -9.203125 25.515625 -10.609375 C 27.429688 -12.015625 29.421875 -14.023438 31.484375 -16.640625 L 29.15625 -29.984375 C 21.488281 -27.671875 16.175781 -25.253906 13.21875 -22.734375 C 10.269531 -20.222656 9.078125 -17.367188 9.640625 -14.171875 C 10.085938 -11.597656 11.207031 -9.804688 13 -8.796875 C 14.789062 -7.796875 16.910156 -7.507812 19.359375 -7.9375 Z M 19.359375 -7.9375 "/></g></g></g><g fill="#000000" fill-opacity="1"><g transform="translate(335.473294, 186.190606)"><g/></g></g><g fill="#ffde00" fill-opacity="1"><g transform="translate(34.609921, 235.001533)"><g><path d="M 33.359375 -25.859375 L 10.34375 -21.84375 L 7.421875 -1.296875 L 0.375 -0.0625 L 10.765625 -65.5 L 18.46875 -66.84375 L 50.28125 -8.765625 L 42.953125 -7.5 Z M 30.609375 -31.09375 L 25.671875 -40.515625 C 21.796875 -47.910156 18.445312 -54.523438 15.625 -60.359375 L 15.25 -60.296875 C 14.507812 -52.359375 13.628906 -45.003906 12.609375 -38.234375 L 11.15625 -27.703125 Z M 30.609375 -31.09375 "/></g></g></g><g fill="#ffde00" fill-opacity="1"><g transform="translate(85.271677, 226.164493)"><g><path d="M 15.625 -1.5625 C 13.050781 -1.113281 11.023438 -1.582031 9.546875 -2.96875 C 8.078125 -4.351562 7.070312 -6.617188 6.53125 -9.765625 L -3.71875 -68.5 L 3.0625 -69.6875 L 13.40625 -10.375 C 13.59375 -9.3125 13.9375 -8.546875 14.4375 -8.078125 C 14.9375 -7.617188 15.5 -7.445312 16.125 -7.5625 C 16.625 -7.644531 17.175781 -7.800781 17.78125 -8.03125 L 19.625 -2.921875 C 18.519531 -2.285156 17.1875 -1.832031 15.625 -1.5625 Z M 15.625 -1.5625 "/></g></g></g><g fill="#ffde00" fill-opacity="1"><g transform="translate(108.769712, 222.065679)"><g><path d="M -6.828125 -45.796875 L 0.21875 -47.015625 L 13.890625 -22 L 20.546875 -9.390625 L 20.921875 -9.46875 L 22.921875 -23.578125 L 27.296875 -51.734375 L 34.0625 -52.921875 L 25.65625 -4.46875 L 17.765625 -3.09375 Z M -6.828125 -45.796875 "/></g></g></g><g fill="#ffde00" fill-opacity="1"><g transform="translate(151.912097, 214.540259)"><g><path d="M 18.53125 -2.078125 C 14.644531 -1.398438 11.25 -1.96875 8.34375 -3.78125 C 5.445312 -5.601562 3.644531 -8.550781 2.9375 -12.625 C 2.070312 -17.570312 3.660156 -21.769531 7.703125 -25.21875 C 11.753906 -28.675781 18.640625 -31.800781 28.359375 -34.59375 C 27.734375 -38.164062 26.484375 -40.960938 24.609375 -42.984375 C 22.734375 -45.015625 20.007812 -45.71875 16.4375 -45.09375 C 12.101562 -44.34375 7.789062 -41.878906 3.5 -37.703125 L -0.046875 -41.9375 C 5.253906 -46.988281 10.789062 -50.019531 16.5625 -51.03125 C 21.820312 -51.945312 25.992188 -50.976562 29.078125 -48.125 C 32.171875 -45.269531 34.21875 -40.960938 35.21875 -35.203125 L 40.140625 -7 L 34.5 -6.015625 L 32.96875 -11.46875 L 32.671875 -11.421875 C 28.066406 -6.023438 23.351562 -2.910156 18.53125 -2.078125 Z M 19.359375 -7.9375 C 21.546875 -8.3125 23.597656 -9.203125 25.515625 -10.609375 C 27.429688 -12.015625 29.421875 -14.023438 31.484375 -16.640625 L 29.15625 -29.984375 C 21.488281 -27.671875 16.175781 -25.253906 13.21875 -22.734375 C 10.269531 -20.222656 9.078125 -17.367188 9.640625 -14.171875 C 10.085938 -11.597656 11.207031 -9.804688 13 -8.796875 C 14.789062 -7.796875 16.910156 -7.507812 19.359375 -7.9375 Z M 19.359375 -7.9375 "/></g></g></g><g fill="#ffde00" fill-opacity="1"><g transform="translate(199.002155, 206.326238)"><g><path d="M 0.03125 -46.984375 L 5.6875 -47.96875 L 7.421875 -41.28125 L 7.703125 -41.34375 C 9.773438 -44.289062 11.894531 -46.660156 14.0625 -48.453125 C 16.226562 -50.253906 18.753906 -51.410156 21.640625 -51.921875 C 26.398438 -52.742188 30.171875 -51.863281 32.953125 -49.28125 C 35.734375 -46.695312 37.640625 -42.460938 38.671875 -36.578125 L 43.71875 -7.625 L 36.84375 -6.421875 L 31.9375 -34.53125 C 31.175781 -38.90625 29.914062 -41.972656 28.15625 -43.734375 C 26.394531 -45.503906 23.921875 -46.113281 20.734375 -45.5625 C 18.472656 -45.164062 16.472656 -44.21875 14.734375 -42.71875 C 12.992188 -41.21875 11.0625 -38.960938 8.9375 -35.953125 L 14.765625 -2.578125 L 7.984375 -1.390625 Z M 0.03125 -46.984375 "/></g></g></g><g fill="#ffde00" fill-opacity="1"><g transform="translate(250.039886, 197.423615)"><g><path d="M 2.171875 -4.140625 L 20.5625 -44.734375 L -1.421875 -40.90625 L -2.40625 -46.5625 L 28.234375 -51.90625 L 28.875 -48.234375 L 10.484375 -7.640625 L 36.046875 -12.09375 L 37.03125 -6.453125 L 2.8125 -0.484375 Z M 2.171875 -4.140625 "/></g></g></g><g fill="#ffde00" fill-opacity="1"><g transform="translate(289.422599, 190.554003)"><g><path d="M 18.53125 -2.078125 C 14.644531 -1.398438 11.25 -1.96875 8.34375 -3.78125 C 5.445312 -5.601562 3.644531 -8.550781 2.9375 -12.625 C 2.070312 -17.570312 3.660156 -21.769531 7.703125 -25.21875 C 11.753906 -28.675781 18.640625 -31.800781 28.359375 -34.59375 C 27.734375 -38.164062 26.484375 -40.960938 24.609375 -42.984375 C 22.734375 -45.015625 20.007812 -45.71875 16.4375 -45.09375 C 12.101562 -44.34375 7.789062 -41.878906 3.5 -37.703125 L -0.046875 -41.9375 C 5.253906 -46.988281 10.789062 -50.019531 16.5625 -51.03125 C 21.820312 -51.945312 25.992188 -50.976562 29.078125 -48.125 C 32.171875 -45.269531 34.21875 -40.960938 35.21875 -35.203125 L 40.140625 -7 L 34.5 -6.015625 L 32.96875 -11.46875 L 32.671875 -11.421875 C 28.066406 -6.023438 23.351562 -2.910156 18.53125 -2.078125 Z M 19.359375 -7.9375 C 21.546875 -8.3125 23.597656 -9.203125 25.515625 -10.609375 C 27.429688 -12.015625 29.421875 -14.023438 31.484375 -16.640625 L 29.15625 -29.984375 C 21.488281 -27.671875 16.175781 -25.253906 13.21875 -22.734375 C 10.269531 -20.222656 9.078125 -17.367188 9.640625 -14.171875 C 10.085938 -11.597656 11.207031 -9.804688 13 -8.796875 C 14.789062 -7.796875 16.910156 -7.507812 19.359375 -7.9375 Z M 19.359375 -7.9375 "/></g></g></g><g fill="#ffde00" fill-opacity="1"><g transform="translate(336.50794, 182.340804)"><g/></g></g><g clip-path="url(#4ff3090fa3)"><g clip-path="url(#890c92399c)"><path fill="#000000" d="M 32.410156 40.003906 L 349.921875 40.003906 L 349.921875 343.152344 L 32.410156 343.152344 Z M 32.410156 40.003906 " fill-opacity="1" fill-rule="nonzero"/></g></g><g clip-path="url(#9c0240fd10)"><g clip-path="url(#cca174041c)"><path fill="#ac1e0b" d="M 36.378906 42.605469 L 345.640625 42.605469 L 345.640625 331.816406 L 36.378906 331.816406 Z M 36.378906 42.605469 " fill-opacity="1" fill-rule="nonzero"/></g></g><path fill="#000000" d="M 269.945312 103.84375 C 269.175781 85.652344 261.75 68.6875 248.839844 55.785156 C 235.40625 42.300781 217.542969 34.777344 198.53125 34.601562 C 198.371094 34.589844 198.285156 34.585938 198.1875 34.582031 C 198.039062 34.570312 197.90625 34.566406 197.746094 34.570312 L 184.515625 34.570312 C 184.339844 34.570312 184.199219 34.566406 184.042969 34.582031 C 145.378906 34.980469 113.96875 65.757812 112.320312 103.839844 L 269.945312 103.839844 Z M 168.941406 40.972656 C 171.515625 40.390625 174.1875 39.964844 176.882812 39.703125 C 178.59375 39.554688 180.136719 40.800781 180.300781 42.527344 C 180.472656 44.253906 179.207031 45.789062 177.484375 45.953125 C 175.050781 46.1875 172.640625 46.574219 170.328125 47.097656 C 170.09375 47.148438 169.863281 47.171875 169.632812 47.171875 C 168.199219 47.171875 166.90625 46.183594 166.574219 44.722656 C 166.195312 43.03125 167.253906 41.351562 168.941406 40.96875 Z M 155.707031 45.648438 C 157.265625 44.882812 159.140625 45.519531 159.902344 47.078125 C 160.671875 48.632812 160.03125 50.515625 158.480469 51.28125 C 135.085938 62.839844 127.191406 88.722656 127.113281 88.984375 C 126.707031 90.347656 125.460938 91.230469 124.109375 91.230469 C 123.8125 91.230469 123.519531 91.191406 123.222656 91.101562 C 121.5625 90.613281 120.613281 88.871094 121.101562 87.207031 C 121.445312 86.039062 129.796875 58.453125 155.707031 45.648438 Z M 155.707031 45.648438 " fill-opacity="1" fill-rule="nonzero"/><path fill="#000000" d="M 186.839844 21.359375 L 186.839844 28.296875 L 195.425781 28.296875 L 195.425781 21.359375 C 195.425781 20.230469 194.960938 19.105469 194.152344 18.277344 C 193.378906 17.5 192.296875 17.058594 191.132812 17.058594 C 188.765625 17.058594 186.839844 18.988281 186.839844 21.359375 Z M 186.839844 21.359375 " fill-opacity="1" fill-rule="nonzero"/><g clip-path="url(#ee6c535f91)"><path fill="#000000" d="M 275.800781 110.125 L 273.199219 110.125 C 273.183594 110.125 273.167969 110.132812 273.148438 110.132812 L 109.117188 110.132812 C 109.097656 110.132812 109.082031 110.125 109.066406 110.125 L 106.464844 110.125 C 104.765625 110.125 103.382812 111.507812 103.382812 113.210938 L 103.382812 116.246094 C 103.382812 117.945312 104.765625 119.332031 106.464844 119.332031 L 275.800781 119.332031 C 277.5 119.332031 278.882812 117.949219 278.882812 116.246094 L 278.882812 113.210938 C 278.882812 111.511719 277.5 110.125 275.800781 110.125 Z M 275.800781 110.125 " fill-opacity="1" fill-rule="nonzero"/></g><path fill="#737373" d="M 269.945312 107.886719 C 269.175781 89.695312 261.75 72.730469 248.839844 59.828125 C 235.40625 46.34375 217.542969 38.820312 198.53125 38.644531 C 198.371094 38.632812 198.285156 38.628906 198.1875 38.625 C 198.039062 38.613281 197.90625 38.609375 197.746094 38.613281 L 184.515625 38.613281 C 184.339844 38.613281 184.199219 38.609375 184.042969 38.625 C 145.378906 39.023438 113.96875 69.800781 112.320312 107.882812 L 269.945312 107.882812 Z M 168.941406 45.015625 C 171.515625 44.433594 174.1875 44.007812 176.882812 43.746094 C 178.59375 43.597656 180.136719 44.84375 180.300781 46.570312 C 180.472656 48.296875 179.207031 49.832031 177.484375 49.996094 C 175.050781 50.230469 172.640625 50.613281 170.328125 51.140625 C 170.09375 51.191406 169.863281 51.214844 169.632812 51.214844 C 168.199219 51.214844 166.90625 50.226562 166.574219 48.765625 C 166.195312 47.074219 167.253906 45.394531 168.941406 45.011719 Z M 155.707031 49.691406 C 157.265625 48.925781 159.140625 49.5625 159.902344 51.121094 C 160.671875 52.675781 160.03125 54.558594 158.480469 55.324219 C 135.085938 66.882812 127.191406 92.765625 127.113281 93.027344 C 126.707031 94.390625 125.460938 95.273438 124.109375 95.273438 C 123.8125 95.273438 123.519531 95.234375 123.222656 95.144531 C 121.5625 94.65625 120.613281 92.914062 121.101562 91.25 C 121.445312 90.082031 129.796875 62.496094 155.707031 49.691406 Z M 155.707031 49.691406 " fill-opacity="1" fill-rule="nonzero"/><path fill="#737373" d="M 186.839844 25.402344 L 186.839844 32.339844 L 195.425781 32.339844 L 195.425781 25.402344 C 195.425781 24.273438 194.960938 23.148438 194.152344 22.320312 C 193.378906 21.542969 192.296875 21.101562 191.132812 21.101562 C 188.765625 21.101562 186.839844 23.03125 186.839844 25.402344 Z M 186.839844 25.402344 " fill-opacity="1" fill-rule="nonzero"/><g clip-path="url(#1ec5fad091)"><path fill="#737373" d="M 275.800781 114.164062 L 273.199219 114.164062 C 273.183594 114.164062 273.167969 114.175781 273.148438 114.175781 L 109.117188 114.175781 C 109.097656 114.175781 109.082031 114.164062 109.066406 114.164062 L 106.464844 114.164062 C 104.765625 114.164062 103.382812 115.550781 103.382812 117.253906 L 103.382812 120.289062 C 103.382812 121.988281 104.765625 123.375 106.464844 123.375 L 275.800781 123.375 C 277.5 123.375 278.882812 121.992188 278.882812 120.289062 L 278.882812 117.253906 C 278.882812 115.554688 277.5 114.164062 275.800781 114.164062 Z M 275.800781 114.164062 " fill-opacity="1" fill-rule="nonzero"/></g><g fill="#ffde00" fill-opacity="1"><g transform="translate(150.97267, 241.848915)"><g><path d="M 0.984375 -17.4375 L 14.984375 -18.15625 L 15.203125 -14 L 6.75 -13.5625 L 6.90625 -10.578125 L 14.1875 -10.953125 L 14.390625 -6.96875 L 7.109375 -6.59375 L 7.421875 -0.375 L 1.875 -0.09375 Z M 0.984375 -17.4375 "/></g></g></g><g fill="#ffde00" fill-opacity="1"><g transform="translate(167.773322, 240.990506)"><g><path d="M 9.578125 -18.1875 C 12.566406 -18.34375 14.914062 -17.695312 16.625 -16.25 C 18.332031 -14.800781 19.265625 -12.613281 19.421875 -9.6875 C 19.566406 -6.769531 18.863281 -4.503906 17.3125 -2.890625 C 15.757812 -1.273438 13.488281 -0.390625 10.5 -0.234375 C 7.5 -0.0859375 5.148438 -0.734375 3.453125 -2.171875 C 1.765625 -3.609375 0.847656 -5.796875 0.703125 -8.734375 C 0.546875 -11.671875 1.234375 -13.941406 2.765625 -15.546875 C 4.304688 -17.160156 6.578125 -18.039062 9.578125 -18.1875 Z M 9.796875 -14.015625 C 8.597656 -13.953125 7.707031 -13.539062 7.125 -12.78125 C 6.539062 -12.03125 6.28125 -11.039062 6.34375 -9.8125 L 6.421875 -8.203125 C 6.484375 -6.972656 6.84375 -6.015625 7.5 -5.328125 C 8.15625 -4.640625 9.082031 -4.328125 10.28125 -4.390625 C 11.476562 -4.453125 12.375 -4.859375 12.96875 -5.609375 C 13.5625 -6.359375 13.828125 -7.347656 13.765625 -8.578125 L 13.6875 -10.1875 C 13.625 -11.414062 13.257812 -12.375 12.59375 -13.0625 C 11.925781 -13.757812 10.992188 -14.078125 9.796875 -14.015625 Z M 9.796875 -14.015625 "/></g></g></g><g fill="#ffde00" fill-opacity="1"><g transform="translate(188.755238, 239.91846)"><g><path d="M 9.578125 -18.1875 C 12.566406 -18.34375 14.914062 -17.695312 16.625 -16.25 C 18.332031 -14.800781 19.265625 -12.613281 19.421875 -9.6875 C 19.566406 -6.769531 18.863281 -4.503906 17.3125 -2.890625 C 15.757812 -1.273438 13.488281 -0.390625 10.5 -0.234375 C 7.5 -0.0859375 5.148438 -0.734375 3.453125 -2.171875 C 1.765625 -3.609375 0.847656 -5.796875 0.703125 -8.734375 C 0.546875 -11.671875 1.234375 -13.941406 2.765625 -15.546875 C 4.304688 -17.160156 6.578125 -18.039062 9.578125 -18.1875 Z M 9.796875 -14.015625 C 8.597656 -13.953125 7.707031 -13.539062 7.125 -12.78125 C 6.539062 -12.03125 6.28125 -11.039062 6.34375 -9.8125 L 6.421875 -8.203125 C 6.484375 -6.972656 6.84375 -6.015625 7.5 -5.328125 C 8.15625 -4.640625 9.082031 -4.328125 10.28125 -4.390625 C 11.476562 -4.453125 12.375 -4.859375 12.96875 -5.609375 C 13.5625 -6.359375 13.828125 -7.347656 13.765625 -8.578125 L 13.6875 -10.1875 C 13.625 -11.414062 13.257812 -12.375 12.59375 -13.0625 C 11.925781 -13.757812 10.992188 -14.078125 9.796875 -14.015625 Z M 9.796875 -14.015625 "/></g></g></g><g fill="#ffde00" fill-opacity="1"><g transform="translate(209.737155, 238.846413)"><g><path d="M 8.484375 -17.828125 C 14.546875 -18.128906 17.726562 -15.390625 18.03125 -9.609375 C 18.320312 -3.828125 15.4375 -0.785156 9.375 -0.484375 L 1.875 -0.09375 L 0.984375 -17.4375 Z M 7.203125 -4.53125 L 9.046875 -4.625 C 11.390625 -4.75 12.5 -6.0625 12.375 -8.5625 L 12.296875 -10.078125 C 12.171875 -12.585938 10.9375 -13.78125 8.59375 -13.65625 L 6.75 -13.5625 Z M 7.203125 -4.53125 "/></g></g></g><g fill="#ffde00" fill-opacity="1"><g transform="translate(229.333716, 237.84515)"><g/></g></g><g fill="#ffde00" fill-opacity="1"><g transform="translate(237.721443, 237.416589)"><g><path d="M 9.21875 -18.171875 C 11.789062 -18.304688 13.859375 -17.765625 15.421875 -16.546875 C 16.984375 -15.328125 17.828125 -13.523438 17.953125 -11.140625 L 12.640625 -10.875 C 12.585938 -11.882812 12.28125 -12.671875 11.71875 -13.234375 C 11.15625 -13.796875 10.390625 -14.050781 9.421875 -14 C 8.285156 -13.945312 7.472656 -13.550781 6.984375 -12.8125 C 6.492188 -12.070312 6.28125 -11.070312 6.34375 -9.8125 L 6.421875 -8.203125 C 6.484375 -6.953125 6.796875 -5.988281 7.359375 -5.3125 C 7.921875 -4.632812 8.75 -4.320312 9.84375 -4.375 C 10.925781 -4.425781 11.726562 -4.742188 12.25 -5.328125 C 12.78125 -5.921875 13.019531 -6.71875 12.96875 -7.71875 L 18.109375 -7.96875 C 18.234375 -5.601562 17.597656 -3.753906 16.203125 -2.421875 C 14.816406 -1.085938 12.796875 -0.351562 10.140625 -0.21875 C 7.191406 -0.0703125 4.914062 -0.710938 3.3125 -2.140625 C 1.71875 -3.578125 0.847656 -5.773438 0.703125 -8.734375 C 0.546875 -11.691406 1.1875 -13.96875 2.625 -15.5625 C 4.070312 -17.15625 6.269531 -18.023438 9.21875 -18.171875 Z M 9.21875 -18.171875 "/></g></g></g><g fill="#ffde00" fill-opacity="1"><g transform="translate(257.318005, 236.415326)"><g><path d="M 9.578125 -18.1875 C 12.566406 -18.34375 14.914062 -17.695312 16.625 -16.25 C 18.332031 -14.800781 19.265625 -12.613281 19.421875 -9.6875 C 19.566406 -6.769531 18.863281 -4.503906 17.3125 -2.890625 C 15.757812 -1.273438 13.488281 -0.390625 10.5 -0.234375 C 7.5 -0.0859375 5.148438 -0.734375 3.453125 -2.171875 C 1.765625 -3.609375 0.847656 -5.796875 0.703125 -8.734375 C 0.546875 -11.671875 1.234375 -13.941406 2.765625 -15.546875 C 4.304688 -17.160156 6.578125 -18.039062 9.578125 -18.1875 Z M 9.796875 -14.015625 C 8.597656 -13.953125 7.707031 -13.539062 7.125 -12.78125 C 6.539062 -12.03125 6.28125 -11.039062 6.34375 -9.8125 L 6.421875 -8.203125 C 6.484375 -6.972656 6.84375 -6.015625 7.5 -5.328125 C 8.15625 -4.640625 9.082031 -4.328125 10.28125 -4.390625 C 11.476562 -4.453125 12.375 -4.859375 12.96875 -5.609375 C 13.5625 -6.359375 13.828125 -7.347656 13.765625 -8.578125 L 13.6875 -10.1875 C 13.625 -11.414062 13.257812 -12.375 12.59375 -13.0625 C 11.925781 -13.757812 10.992188 -14.078125 9.796875 -14.015625 Z M 9.796875 -14.015625 "/></g></g></g><g fill="#ffde00" fill-opacity="1"><g transform="translate(278.299921, 235.34328)"><g><path d="M 18.765625 -7.953125 C 18.890625 -5.597656 18.234375 -3.757812 16.796875 -2.4375 C 15.367188 -1.113281 13.273438 -0.378906 10.515625 -0.234375 C 7.765625 -0.0976562 5.609375 -0.613281 4.046875 -1.78125 C 2.484375 -2.945312 1.640625 -4.707031 1.515625 -7.0625 L 0.984375 -17.4375 L 6.53125 -17.71875 L 7.0625 -7.421875 C 7.113281 -6.460938 7.414062 -5.703125 7.96875 -5.140625 C 8.519531 -4.585938 9.289062 -4.335938 10.28125 -4.390625 C 11.269531 -4.441406 12.015625 -4.773438 12.515625 -5.390625 C 13.023438 -6.003906 13.253906 -6.785156 13.203125 -7.734375 L 12.671875 -18.03125 L 18.234375 -18.328125 Z M 18.765625 -7.953125 "/></g></g></g><g fill="#ffde00" fill-opacity="1"><g transform="translate(299.281838, 234.271234)"><g><path d="M 17.703125 -12.953125 C 17.753906 -11.898438 17.515625 -10.925781 16.984375 -10.03125 C 16.460938 -9.144531 15.664062 -8.472656 14.59375 -8.015625 L 18.8125 -0.96875 L 12.578125 -0.640625 L 9.171875 -6.796875 L 7.09375 -6.6875 L 7.421875 -0.375 L 1.875 -0.09375 L 0.984375 -17.4375 L 11.578125 -17.984375 C 12.828125 -18.046875 13.90625 -17.859375 14.8125 -17.421875 C 15.726562 -16.992188 16.425781 -16.378906 16.90625 -15.578125 C 17.382812 -14.785156 17.648438 -13.910156 17.703125 -12.953125 Z M 12.046875 -12.4375 C 12.023438 -12.882812 11.851562 -13.253906 11.53125 -13.546875 C 11.21875 -13.835938 10.84375 -13.972656 10.40625 -13.953125 L 6.734375 -13.765625 L 6.90625 -10.546875 L 10.578125 -10.734375 C 11.015625 -10.753906 11.375 -10.925781 11.65625 -11.25 C 11.945312 -11.582031 12.078125 -11.976562 12.046875 -12.4375 Z M 12.046875 -12.4375 "/></g></g></g><g fill="#ffde00" fill-opacity="1"><g transform="translate(318.878399, 233.269971)"><g><path d="M 11.1875 -13.515625 L 11.84375 -0.609375 L 6.265625 -0.328125 L 5.609375 -13.234375 L -0.078125 -12.9375 L -0.3125 -17.375 L 16.625 -18.234375 L 16.859375 -13.796875 Z M 11.1875 -13.515625 "/></g></g></g><g fill="#000000" fill-opacity="1"><g transform="translate(4.949844, 242.055966)"><g><path d="M 90.390625 0 L 85.5 -16.390625 L 44.78125 -16.390625 L 39.875 0 L 1.6875 0 L 44.09375 -116.25 L 87.53125 -116.25 L 129.9375 0 Z M 52.546875 -42.40625 L 77.71875 -42.40625 L 65.5625 -83.8125 L 64.890625 -83.8125 Z M 52.546875 -42.40625 "/></g></g></g><g fill="#000000" fill-opacity="1"><g transform="translate(129.38109, 206.226582)"><g><path d="M 0.3125 -63.796875 L 10.859375 -64.53125 L 15.28125 -1.0625 L 4.734375 -0.328125 Z M 0.3125 -63.796875 "/></g></g></g><g fill="#000000" fill-opacity="1"><g transform="translate(149.395635, 204.831362)"><g><path d="M -2.859375 -46.203125 L 8.1875 -46.96875 L 15.53125 -27.5625 C 16.101562 -26.125 16.828125 -23.757812 17.703125 -20.46875 C 18.585938 -17.175781 19.15625 -14.976562 19.40625 -13.875 L 19.765625 -13.90625 C 19.859375 -14.96875 20.054688 -17.140625 20.359375 -20.421875 C 20.671875 -23.703125 21.019531 -26.21875 21.40625 -27.96875 L 25.921875 -48.203125 L 36.46875 -48.9375 L 25.375 -1.765625 L 14.671875 -1.015625 Z M -2.859375 -46.203125 "/></g></g></g><g fill="#000000" fill-opacity="1"><g transform="translate(189.424724, 202.040923)"><g><path d="M 12.890625 0.171875 C 10.023438 0.367188 7.304688 -0.425781 4.734375 -2.21875 C 2.171875 -4.007812 0.726562 -7.273438 0.40625 -12.015625 C 0 -17.867188 1.695312 -22.164062 5.5 -24.90625 C 9.3125 -27.644531 14.875 -29.269531 22.1875 -29.78125 L 21.84375 -34.609375 C 21.71875 -36.421875 21.285156 -37.800781 20.546875 -38.75 C 19.804688 -39.695312 18.5 -40.101562 16.625 -39.96875 C 14.6875 -39.832031 13.3125 -39.25 12.5 -38.21875 C 11.695312 -37.1875 11.335938 -36.03125 11.421875 -34.75 L 11.515625 -33.4375 L 1.234375 -32.734375 C 1.160156 -33.078125 1.085938 -33.71875 1.015625 -34.65625 C 0.753906 -38.507812 1.957031 -41.707031 4.625 -44.25 C 7.300781 -46.789062 11.007812 -48.226562 15.75 -48.5625 C 21.019531 -48.925781 25.039062 -48.023438 27.8125 -45.859375 C 30.582031 -43.703125 32.117188 -40.429688 32.421875 -36.046875 L 34 -13.296875 C 34.070312 -12.253906 34.359375 -11.5 34.859375 -11.03125 C 35.359375 -10.5625 35.960938 -10.351562 36.671875 -10.40625 L 38.78125 -10.546875 L 39.296875 -3.09375 C 37.609375 -2.03125 35.566406 -1.414062 33.171875 -1.25 C 31.117188 -1.101562 29.335938 -1.523438 27.828125 -2.515625 C 26.316406 -3.503906 25.234375 -4.910156 24.578125 -6.734375 L 24.140625 -6.703125 C 22.828125 -4.566406 21.335938 -2.9375 19.671875 -1.8125 C 18.015625 -0.6875 15.753906 -0.0234375 12.890625 0.171875 Z M 16.671875 -8.9375 C 19.015625 -9.09375 20.6875 -10.144531 21.6875 -12.09375 C 22.695312 -14.050781 23.101562 -16.519531 22.90625 -19.5 L 22.71875 -22.140625 C 19.144531 -21.890625 16.269531 -21.113281 14.09375 -19.8125 C 11.925781 -18.519531 10.9375 -16.5 11.125 -13.75 C 11.238281 -12.101562 11.753906 -10.859375 12.671875 -10.015625 C 13.585938 -9.171875 14.921875 -8.8125 16.671875 -8.9375 Z M 16.671875 -8.9375 "/></g></g></g><g fill="#000000" fill-opacity="1"><g transform="translate(229.453814, 199.250484)"><g><path d="M 1.609375 -46.515625 L 10.390625 -47.125 L 11.84375 -41.484375 L 12.359375 -41.53125 C 13.566406 -43.613281 15.09375 -45.351562 16.9375 -46.75 C 18.78125 -48.144531 20.988281 -48.929688 23.5625 -49.109375 C 27.363281 -49.367188 30.445312 -48.390625 32.8125 -46.171875 C 35.175781 -43.960938 36.539062 -40.28125 36.90625 -35.125 L 39.15625 -2.734375 L 28.625 -2 L 26.5625 -31.484375 C 26.363281 -34.359375 25.707031 -36.398438 24.59375 -37.609375 C 23.476562 -38.828125 21.921875 -39.367188 19.921875 -39.234375 C 17.878906 -39.085938 16.234375 -38.078125 14.984375 -36.203125 C 13.742188 -34.328125 13.210938 -32.101562 13.390625 -29.53125 L 15.375 -1.078125 L 4.828125 -0.34375 Z M 1.609375 -46.515625 "/></g></g></g><g fill="#000000" fill-opacity="1"><g transform="translate(273.433144, 196.184673)"><g><path d="M 1.265625 -4.578125 L 16.890625 -38.671875 L 0.046875 -37.5 L -0.578125 -46.359375 L 30.578125 -48.53125 L 30.890625 -44.140625 L 15.1875 -9.984375 L 33.796875 -11.28125 L 34.421875 -2.40625 L 1.578125 -0.109375 Z M 1.265625 -4.578125 "/></g></g></g><g fill="#000000" fill-opacity="1"><g transform="translate(309.424212, 193.675726)"><g><path d="M 12.890625 0.171875 C 10.023438 0.367188 7.304688 -0.425781 4.734375 -2.21875 C 2.171875 -4.007812 0.726562 -7.273438 0.40625 -12.015625 C 0 -17.867188 1.695312 -22.164062 5.5 -24.90625 C 9.3125 -27.644531 14.875 -29.269531 22.1875 -29.78125 L 21.84375 -34.609375 C 21.71875 -36.421875 21.285156 -37.800781 20.546875 -38.75 C 19.804688 -39.695312 18.5 -40.101562 16.625 -39.96875 C 14.6875 -39.832031 13.3125 -39.25 12.5 -38.21875 C 11.695312 -37.1875 11.335938 -36.03125 11.421875 -34.75 L 11.515625 -33.4375 L 1.234375 -32.734375 C 1.160156 -33.078125 1.085938 -33.71875 1.015625 -34.65625 C 0.753906 -38.507812 1.957031 -41.707031 4.625 -44.25 C 7.300781 -46.789062 11.007812 -48.226562 15.75 -48.5625 C 21.019531 -48.925781 25.039062 -48.023438 27.8125 -45.859375 C 30.582031 -43.703125 32.117188 -40.429688 32.421875 -36.046875 L 34 -13.296875 C 34.070312 -12.253906 34.359375 -11.5 34.859375 -11.03125 C 35.359375 -10.5625 35.960938 -10.351562 36.671875 -10.40625 L 38.78125 -10.546875 L 39.296875 -3.09375 C 37.609375 -2.03125 35.566406 -1.414062 33.171875 -1.25 C 31.117188 -1.101562 29.335938 -1.523438 27.828125 -2.515625 C 26.316406 -3.503906 25.234375 -4.910156 24.578125 -6.734375 L 24.140625 -6.703125 C 22.828125 -4.566406 21.335938 -2.9375 19.671875 -1.8125 C 18.015625 -0.6875 15.753906 -0.0234375 12.890625 0.171875 Z M 16.671875 -8.9375 C 19.015625 -9.09375 20.6875 -10.144531 21.6875 -12.09375 C 22.695312 -14.050781 23.101562 -16.519531 22.90625 -19.5 L 22.71875 -22.140625 C 19.144531 -21.890625 16.269531 -21.113281 14.09375 -19.8125 C 11.925781 -18.519531 10.9375 -16.5 11.125 -13.75 C 11.238281 -12.101562 11.753906 -10.859375 12.671875 -10.015625 C 13.585938 -9.171875 14.921875 -8.8125 16.671875 -8.9375 Z M 16.671875 -8.9375 "/></g></g></g><g fill="#ffde00" fill-opacity="1"><g transform="translate(13.205937, 237.152219)"><g><path d="M 84.296875 0 L 79.734375 -15.28125 L 41.765625 -15.28125 L 37.1875 0 L 1.578125 0 L 41.125 -108.40625 L 81.625 -108.40625 L 121.171875 0 Z M 49 -39.546875 L 72.484375 -39.546875 L 61.140625 -78.15625 L 60.515625 -78.15625 Z M 49 -39.546875 "/></g></g></g><g fill="#ffde00" fill-opacity="1"><g transform="translate(127.399479, 202.914533)"><g><path d="M 0.3125 -62.75 L 10.6875 -63.46875 L 15.03125 -1.046875 L 4.65625 -0.328125 Z M 0.3125 -62.75 "/></g></g></g><g fill="#ffde00" fill-opacity="1"><g transform="translate(147.083484, 201.542356)"><g><path d="M -2.828125 -45.453125 L 8.046875 -46.203125 L 15.28125 -27.09375 C 15.84375 -25.675781 16.554688 -23.351562 17.421875 -20.125 C 18.285156 -16.894531 18.84375 -14.738281 19.09375 -13.65625 L 19.4375 -13.6875 C 19.53125 -14.726562 19.726562 -16.863281 20.03125 -20.09375 C 20.332031 -23.320312 20.675781 -25.789062 21.0625 -27.5 L 25.5 -47.421875 L 35.859375 -48.140625 L 24.953125 -1.734375 L 14.421875 -1 Z M -2.828125 -45.453125 "/></g></g></g><g fill="#ffde00" fill-opacity="1"><g transform="translate(186.451508, 198.798)"><g><path d="M 12.6875 0.15625 C 9.863281 0.351562 7.191406 -0.425781 4.671875 -2.1875 C 2.148438 -3.945312 0.726562 -7.15625 0.40625 -11.8125 C 0 -17.570312 1.664062 -21.796875 5.40625 -24.484375 C 9.15625 -27.179688 14.625 -28.78125 21.8125 -29.28125 L 21.484375 -34.03125 C 21.359375 -35.820312 20.929688 -37.179688 20.203125 -38.109375 C 19.484375 -39.035156 18.203125 -39.4375 16.359375 -39.3125 C 14.453125 -39.175781 13.097656 -38.601562 12.296875 -37.59375 C 11.503906 -36.582031 11.15625 -35.445312 11.25 -34.1875 L 11.34375 -32.875 L 1.234375 -32.171875 C 1.140625 -32.523438 1.0625 -33.160156 1 -34.078125 C 0.738281 -37.878906 1.921875 -41.023438 4.546875 -43.515625 C 7.179688 -46.015625 10.832031 -47.429688 15.5 -47.765625 C 20.675781 -48.117188 24.625 -47.234375 27.34375 -45.109375 C 30.070312 -42.984375 31.585938 -39.757812 31.890625 -35.4375 L 33.4375 -13.078125 C 33.507812 -12.046875 33.789062 -11.300781 34.28125 -10.84375 C 34.78125 -10.394531 35.378906 -10.191406 36.078125 -10.234375 L 38.140625 -10.390625 L 38.640625 -3.046875 C 36.984375 -2.003906 34.976562 -1.398438 32.625 -1.234375 C 30.601562 -1.097656 28.847656 -1.507812 27.359375 -2.46875 C 25.878906 -3.4375 24.816406 -4.820312 24.171875 -6.625 L 23.734375 -6.59375 C 22.453125 -4.488281 20.992188 -2.882812 19.359375 -1.78125 C 17.722656 -0.6875 15.5 -0.0390625 12.6875 0.15625 Z M 16.390625 -8.78125 C 18.691406 -8.9375 20.335938 -9.972656 21.328125 -11.890625 C 22.316406 -13.816406 22.710938 -16.242188 22.515625 -19.171875 L 22.328125 -21.78125 C 18.816406 -21.53125 15.992188 -20.765625 13.859375 -19.484375 C 11.722656 -18.210938 10.75 -16.222656 10.9375 -13.515625 C 11.050781 -11.898438 11.554688 -10.675781 12.453125 -9.84375 C 13.347656 -9.007812 14.660156 -8.65625 16.390625 -8.78125 Z M 16.390625 -8.78125 "/></g></g></g><g fill="#ffde00" fill-opacity="1"><g transform="translate(225.819532, 196.053644)"><g><path d="M 1.578125 -45.75 L 10.21875 -46.359375 L 11.640625 -40.796875 L 12.15625 -40.84375 C 13.34375 -42.894531 14.84375 -44.601562 16.65625 -45.96875 C 18.46875 -47.34375 20.644531 -48.117188 23.1875 -48.296875 C 26.925781 -48.554688 29.953125 -47.59375 32.265625 -45.40625 C 34.585938 -43.226562 35.925781 -39.609375 36.28125 -34.546875 L 38.5 -2.6875 L 28.15625 -1.96875 L 26.140625 -30.96875 C 25.941406 -33.800781 25.289062 -35.8125 24.1875 -37 C 23.09375 -38.1875 21.570312 -38.710938 19.625 -38.578125 C 17.601562 -38.441406 15.972656 -37.445312 14.734375 -35.59375 C 13.503906 -33.738281 12.976562 -31.550781 13.15625 -29.03125 L 15.109375 -1.046875 L 4.75 -0.328125 Z M 1.578125 -45.75 "/></g></g></g><g fill="#ffde00" fill-opacity="1"><g transform="translate(269.072551, 193.038464)"><g><path d="M 1.25 -4.5 L 16.609375 -38.03125 L 0.03125 -36.875 L -0.578125 -45.609375 L 30.078125 -47.734375 L 30.390625 -43.421875 L 14.9375 -9.796875 L 33.234375 -11.078125 L 33.84375 -2.359375 L 1.5625 -0.109375 Z M 1.25 -4.5 "/></g></g></g><g fill="#ffde00" fill-opacity="1"><g transform="translate(304.469237, 190.570951)"><g><path d="M 12.6875 0.15625 C 9.863281 0.351562 7.191406 -0.425781 4.671875 -2.1875 C 2.148438 -3.945312 0.726562 -7.15625 0.40625 -11.8125 C 0 -17.570312 1.664062 -21.796875 5.40625 -24.484375 C 9.15625 -27.179688 14.625 -28.78125 21.8125 -29.28125 L 21.484375 -34.03125 C 21.359375 -35.820312 20.929688 -37.179688 20.203125 -38.109375 C 19.484375 -39.035156 18.203125 -39.4375 16.359375 -39.3125 C 14.453125 -39.175781 13.097656 -38.601562 12.296875 -37.59375 C 11.503906 -36.582031 11.15625 -35.445312 11.25 -34.1875 L 11.34375 -32.875 L 1.234375 -32.171875 C 1.140625 -32.523438 1.0625 -33.160156 1 -34.078125 C 0.738281 -37.878906 1.921875 -41.023438 4.546875 -43.515625 C 7.179688 -46.015625 10.832031 -47.429688 15.5 -47.765625 C 20.675781 -48.117188 24.625 -47.234375 27.34375 -45.109375 C 30.070312 -42.984375 31.585938 -39.757812 31.890625 -35.4375 L 33.4375 -13.078125 C 33.507812 -12.046875 33.789062 -11.300781 34.28125 -10.84375 C 34.78125 -10.394531 35.378906 -10.191406 36.078125 -10.234375 L 38.140625 -10.390625 L 38.640625 -3.046875 C 36.984375 -2.003906 34.976562 -1.398438 32.625 -1.234375 C 30.601562 -1.097656 28.847656 -1.507812 27.359375 -2.46875 C 25.878906 -3.4375 24.816406 -4.820312 24.171875 -6.625 L 23.734375 -6.59375 C 22.453125 -4.488281 20.992188 -2.882812 19.359375 -1.78125 C 17.722656 -0.6875 15.5 -0.0390625 12.6875 0.15625 Z M 16.390625 -8.78125 C 18.691406 -8.9375 20.335938 -9.972656 21.328125 -11.890625 C 22.316406 -13.816406 22.710938 -16.242188 22.515625 -19.171875 L 22.328125 -21.78125 C 18.816406 -21.53125 15.992188 -20.765625 13.859375 -19.484375 C 11.722656 -18.210938 10.75 -16.222656 10.9375 -13.515625 C 11.050781 -11.898438 11.554688 -10.675781 12.453125 -9.84375 C 13.347656 -9.007812 14.660156 -8.65625 16.390625 -8.78125 Z M 16.390625 -8.78125 "/></g></g></g></svg>